<svg xmlns="http://www.w3.org/2000/svg" xmlns:xlink="http://www.w3.org/1999/xlink" version="1.0" width="200" height="200"><defs><linearGradient id="L"><stop style="stop-color:#000;stop-opacity:1" offset="0"/><stop style="stop-color:#000;stop-opacity:0" offset="1"/></linearGradient><linearGradient id="K"><stop style="stop-color:#000;stop-opacity:1" offset="0"/><stop style="stop-color:#000;stop-opacity:0" offset="1"/></linearGradient><linearGradient id="J"><stop style="stop-color:#000;stop-opacity:1" offset="0"/><stop style="stop-color:#000;stop-opacity:0" offset="1"/></linearGradient><linearGradient id="G"><stop style="stop-color:#000;stop-opacity:1" offset="0"/><stop style="stop-color:#000;stop-opacity:0" offset="1"/></linearGradient><linearGradient id="F"><stop style="stop-color:#000;stop-opacity:1" offset="0"/><stop style="stop-color:#000;stop-opacity:0" offset="1"/></linearGradient><linearGradient id="E"><stop style="stop-color:#fff;stop-opacity:1" offset="0"/><stop style="stop-color:#fff;stop-opacity:0" offset="1"/></linearGradient><linearGradient id="D"><stop style="stop-color:#000;stop-opacity:1" offset="0"/><stop style="stop-color:#000;stop-opacity:0" offset="1"/></linearGradient><linearGradient id="C"><stop style="stop-color:#dab30d;stop-opacity:1" offset="0"/><stop style="stop-color:#ab8d0c;stop-opacity:1" offset="1"/></linearGradient><linearGradient id="Q"><stop style="stop-color:#91836f;stop-opacity:1" offset="0"/><stop style="stop-color:#91836f;stop-opacity:1" offset=".829"/><stop style="stop-color:#60523e;stop-opacity:1" offset="1"/></linearGradient><linearGradient id="R"><stop style="stop-color:#835e3c;stop-opacity:1" offset="0"/><stop style="stop-color:#684a2f;stop-opacity:1" offset=".829"/><stop style="stop-color:#4e3723;stop-opacity:1" offset="1"/></linearGradient><linearGradient id="A"><stop style="stop-color:#fff;stop-opacity:1" offset="0"/><stop style="stop-color:#fff;stop-opacity:0" offset="1"/></linearGradient><linearGradient id="y"><stop style="stop-color:#000;stop-opacity:1" offset="0"/><stop style="stop-color:#000;stop-opacity:0" offset="1"/></linearGradient><linearGradient id="x"><stop style="stop-color:#835e3c;stop-opacity:1" offset="0"/><stop style="stop-color:#4e3723;stop-opacity:1" offset="1"/></linearGradient><linearGradient id="P"><stop style="stop-color:#e2a72e;stop-opacity:1" offset="0"/><stop style="stop-color:#e2a72e;stop-opacity:1" offset=".629"/><stop style="stop-color:#7e6839;stop-opacity:1" offset="1"/></linearGradient><linearGradient id="w"><stop style="stop-color:#000;stop-opacity:1" offset="0"/><stop style="stop-color:#000;stop-opacity:0" offset="1"/></linearGradient><linearGradient id="O"><stop style="stop-color:#e2a72e;stop-opacity:1" offset="0"/><stop style="stop-color:#e2a72e;stop-opacity:1" offset=".743"/><stop style="stop-color:#7e6839;stop-opacity:1" offset="1"/></linearGradient><linearGradient id="v"><stop style="stop-color:#fff;stop-opacity:1" offset="0"/><stop style="stop-color:#fff;stop-opacity:0" offset="1"/></linearGradient><linearGradient id="u"><stop style="stop-color:#a5a5a5;stop-opacity:1" offset="0"/><stop style="stop-color:#5e5e5e;stop-opacity:1" offset="1"/></linearGradient><linearGradient id="t"><stop style="stop-color:#000;stop-opacity:1" offset="0"/><stop style="stop-color:#000;stop-opacity:0" offset="1"/></linearGradient><linearGradient id="s"><stop style="stop-color:#6e4f32;stop-opacity:1" offset="0"/><stop style="stop-color:#835e3c;stop-opacity:1" offset=".5"/><stop style="stop-color:#6e4e32;stop-opacity:1" offset="1"/></linearGradient><linearGradient id="r"><stop style="stop-color:#fff;stop-opacity:1" offset="0"/><stop style="stop-color:#fff;stop-opacity:0" offset="1"/></linearGradient><linearGradient id="q"><stop style="stop-color:#fff;stop-opacity:1" offset="0"/><stop style="stop-color:#fff;stop-opacity:0" offset="1"/></linearGradient><linearGradient id="p"><stop style="stop-color:#fff;stop-opacity:1" offset="0"/><stop style="stop-color:#fff;stop-opacity:0" offset="1"/></linearGradient><linearGradient id="o"><stop style="stop-color:#000;stop-opacity:1" offset="0"/><stop style="stop-color:#000;stop-opacity:0" offset="1"/></linearGradient><linearGradient id="n"><stop style="stop-color:#000;stop-opacity:1" offset="0"/><stop style="stop-color:#000;stop-opacity:0" offset="1"/></linearGradient><linearGradient id="m"><stop style="stop-color:#fff;stop-opacity:1" offset="0"/><stop style="stop-color:#fff;stop-opacity:0" offset="1"/></linearGradient><linearGradient id="l"><stop style="stop-color:#fff;stop-opacity:1" offset="0"/><stop style="stop-color:#fff;stop-opacity:0" offset="1"/></linearGradient><linearGradient id="k"><stop style="stop-color:#181818;stop-opacity:1" offset="0"/><stop style="stop-color:#000;stop-opacity:1" offset="1"/></linearGradient><linearGradient id="j"><stop style="stop-color:#fff;stop-opacity:1" offset="0"/><stop style="stop-color:#fff;stop-opacity:0" offset="1"/></linearGradient><linearGradient id="i"><stop style="stop-color:#fff;stop-opacity:1" offset="0"/><stop style="stop-color:#fff;stop-opacity:0" offset="1"/></linearGradient><linearGradient id="h"><stop style="stop-color:#fff;stop-opacity:1" offset="0"/><stop style="stop-color:#fff;stop-opacity:0" offset="1"/></linearGradient><linearGradient id="g"><stop style="stop-color:#000;stop-opacity:1" offset="0"/><stop style="stop-color:#000;stop-opacity:0" offset="1"/></linearGradient><linearGradient id="f"><stop style="stop-color:#fff;stop-opacity:1" offset="0"/><stop style="stop-color:#fff;stop-opacity:0" offset="1"/></linearGradient><linearGradient id="e"><stop style="stop-color:#fff;stop-opacity:1" offset="0"/><stop style="stop-color:#fff;stop-opacity:0" offset="1"/></linearGradient><linearGradient id="c"><stop style="stop-color:#d7a03d;stop-opacity:1" offset="0"/><stop style="stop-color:#d7a03d;stop-opacity:0" offset="1"/></linearGradient><linearGradient id="b"><stop style="stop-color:#d7a03d;stop-opacity:1" offset="0"/><stop style="stop-color:#d7a03d;stop-opacity:0" offset="1"/></linearGradient><linearGradient id="N"><stop style="stop-color:#d2d2d2;stop-opacity:1" offset="0"/><stop style="stop-color:#d2d2d2;stop-opacity:1" offset=".714"/><stop style="stop-color:#767676;stop-opacity:1" offset="1"/></linearGradient><linearGradient id="a"><stop style="stop-color:#fff;stop-opacity:.17948718" offset="0"/><stop style="stop-color:#fff;stop-opacity:1" offset=".171"/><stop style="stop-color:#fff;stop-opacity:0" offset="1"/></linearGradient><linearGradient id="M"><stop style="stop-color:#421e1e;stop-opacity:1" offset="0"/><stop style="stop-color:#000;stop-opacity:1" offset="1"/></linearGradient><linearGradient x1="247.562" y1="63.174" x2="257.655" y2="79.702" id="aS" xlink:href="#a" gradientUnits="userSpaceOnUse"/><linearGradient x1="247.562" y1="63.174" x2="257.655" y2="79.702" id="aT" xlink:href="#a" gradientUnits="userSpaceOnUse" gradientTransform="matrix(.56077 0 0 .54288 129.789 31.54)"/><linearGradient x1="239.608" y1="75.451" x2="256.707" y2="86.765" id="aW" xlink:href="#a" gradientUnits="userSpaceOnUse" gradientTransform="translate(-.177 .177)"/><linearGradient x1="239.608" y1="75.451" x2="256.707" y2="86.765" id="aX" xlink:href="#a" gradientUnits="userSpaceOnUse" gradientTransform="matrix(.647 0 0 .7202 108.148 19.126)"/><linearGradient x1="248.344" y1="75.469" x2="250.469" y2="78.078" id="aU" xlink:href="#a" gradientUnits="userSpaceOnUse"/><linearGradient x1="246.5" y1="81.359" x2="250.75" y2="81.359" id="aV" xlink:href="#a" gradientUnits="userSpaceOnUse"/><linearGradient x1="248.344" y1="75.469" x2="250.469" y2="78.078" id="aP" xlink:href="#a" gradientUnits="userSpaceOnUse"/><linearGradient x1="246.5" y1="81.359" x2="250.75" y2="81.359" id="aQ" xlink:href="#a" gradientUnits="userSpaceOnUse"/><linearGradient x1="255.796" y1="80.93" x2="265.589" y2="90.555" id="bD" xlink:href="#b" gradientUnits="userSpaceOnUse"/><linearGradient x1="266.938" y1="81.75" x2="269.563" y2="81.75" id="bE" xlink:href="#c" gradientUnits="userSpaceOnUse"/><linearGradient x1="239.532" y1="89.398" x2="321.445" y2="83.585" id="bF" xlink:href="#c" gradientUnits="userSpaceOnUse"/><linearGradient x1="280.89" y1="83.244" x2="228.754" y2="88.37" id="bH" xlink:href="#e" gradientUnits="userSpaceOnUse" gradientTransform="translate(.177 -1.06)"/><linearGradient x1="242.848" y1="89.772" x2="293.374" y2="91.022" id="bI" xlink:href="#a" gradientUnits="userSpaceOnUse" gradientTransform="translate(.218 -.042)"/><linearGradient x1="261.165" y1="61.875" x2="247.018" y2="135" id="aF" xlink:href="#e" gradientUnits="userSpaceOnUse" gradientTransform="matrix(1.01616 0 0 1 -4.01 -.75)"/><linearGradient x1="248.625" y1="54.875" x2="261.124" y2="68.5" id="aG" xlink:href="#f" gradientUnits="userSpaceOnUse" gradientTransform="matrix(1.0951 0 0 1 -23.089 -1.97)"/><linearGradient x1="279.5" y1="101.688" x2="277.917" y2="97.813" id="aI" xlink:href="#g" gradientUnits="userSpaceOnUse"/><linearGradient x1="254.875" y1="105.875" x2="255.25" y2="100.313" id="aH" xlink:href="#g" gradientUnits="userSpaceOnUse"/><linearGradient x1="271.175" y1="100.033" x2="285.671" y2="121.423" id="aJ" xlink:href="#h" gradientUnits="userSpaceOnUse" gradientTransform="rotate(31.977 264.447 128.11)"/><linearGradient x1="271.375" y1="93.781" x2="281.313" y2="102.844" id="aK" xlink:href="#i" gradientUnits="userSpaceOnUse"/><linearGradient x1="242.847" y1="61.584" x2="246.692" y2="66.047" id="bx" xlink:href="#j" gradientUnits="userSpaceOnUse"/><linearGradient x1="271.105" y1="61.355" x2="255.034" y2="103.174" id="bw" xlink:href="#k" gradientUnits="userSpaceOnUse"/><linearGradient x1="244.375" y1="86.781" x2="241" y2="75.969" id="by" xlink:href="#l" gradientUnits="userSpaceOnUse"/><linearGradient x1="274.625" y1="62.672" x2="273.234" y2="66.188" id="bN" xlink:href="#m" gradientUnits="userSpaceOnUse" gradientTransform="translate(-154.203 1.125)"/><linearGradient x1="262.867" y1="158.811" x2="265.342" y2="134.946" id="aL" xlink:href="#n" gradientUnits="userSpaceOnUse" gradientTransform="matrix(1.00857 0 0 1 -1.998 0)"/><linearGradient x1="243.25" y1="102.406" x2="241.563" y2="109.875" id="aM" xlink:href="#o" gradientUnits="userSpaceOnUse"/><linearGradient x1="251.023" y1="111.081" x2="241.389" y2="95.171" id="aN" xlink:href="#m" gradientUnits="userSpaceOnUse"/><linearGradient x1="237.75" y1="121.5" x2="247.125" y2="145.5" id="aZ" xlink:href="#p" gradientUnits="userSpaceOnUse"/><linearGradient x1="248.125" y1="158.125" x2="251" y2="124.42" id="aY" xlink:href="#b" gradientUnits="userSpaceOnUse" gradientTransform="translate(.375 1.125)"/><linearGradient x1="302.288" y1="158.811" x2="289.03" y2="133.355" id="ba" xlink:href="#b" gradientUnits="userSpaceOnUse"/><linearGradient x1="310.155" y1="122.483" x2="290.267" y2="143.785" id="bb" xlink:href="#q" gradientUnits="userSpaceOnUse"/><linearGradient x1="286.295" y1="68.42" x2="285.895" y2="73.267" id="bA" xlink:href="#r" gradientUnits="userSpaceOnUse" gradientTransform="rotate(-30.631 291.977 71.537)"/><linearGradient x1="284.345" y1="72.765" x2="288.544" y2="79.217" id="bz" xlink:href="#s" gradientUnits="userSpaceOnUse"/><linearGradient x1="287.527" y1="77.671" x2="279.926" y2="78.068" id="bB" xlink:href="#t" gradientUnits="userSpaceOnUse" gradientTransform="rotate(3.188 274.71 72.885)"/><linearGradient x1="293.703" y1="69.297" x2="295.172" y2="72.047" id="bC" xlink:href="#u" gradientUnits="userSpaceOnUse" gradientTransform="translate(-.07 -.047)"/><linearGradient x1="217.656" y1="117.666" x2="212.618" y2="123.677" id="az" xlink:href="#v" gradientUnits="userSpaceOnUse" gradientTransform="translate(.177 -.044)"/><linearGradient x1="209.861" y1="122.19" x2="214.919" y2="118.086" id="ay" xlink:href="#w" gradientUnits="userSpaceOnUse"/><linearGradient x1="210.674" y1="126.903" x2="214.519" y2="121.511" id="aA" xlink:href="#a" gradientUnits="userSpaceOnUse" gradientTransform="rotate(33.157 213.984 122.59)"/><linearGradient x1="216.065" y1="124.251" x2="217.789" y2="126.77" id="aw" xlink:href="#v" gradientUnits="userSpaceOnUse"/><linearGradient x1="220.5" y1="142.313" x2="224.5" y2="140.75" id="au" xlink:href="#s" gradientUnits="userSpaceOnUse"/><linearGradient x1="219.778" y1="131.057" x2="229.545" y2="156.38" id="aB" xlink:href="#a" gradientUnits="userSpaceOnUse"/><linearGradient x1="341.356" y1="95.746" x2="330.484" y2="113.158" id="S" xlink:href="#x" gradientUnits="userSpaceOnUse"/><linearGradient x1="321.91" y1="113.777" x2="325.976" y2="100.077" id="T" xlink:href="#y" gradientUnits="userSpaceOnUse" gradientTransform="translate(-.188 .406)"/><linearGradient x1="333.578" y1="117.622" x2="340.472" y2="109.048" id="U" xlink:href="#y" gradientUnits="userSpaceOnUse"/><linearGradient x1="336.707" y1="111.001" x2="336.255" y2="136.714" id="X" xlink:href="#A" gradientUnits="userSpaceOnUse" gradientTransform="matrix(1.544 .27819 -.17732 .98415 -172.328 -93.895)"/><linearGradient x1="325.888" y1="131.145" x2="334.285" y2="152.005" id="Y" xlink:href="#y" gradientUnits="userSpaceOnUse" gradientTransform="translate(-9.895 -.861)"/><linearGradient x1="229.813" y1="154.313" x2="225.75" y2="162.25" id="aC" xlink:href="#g" gradientUnits="userSpaceOnUse" gradientTransform="translate(-166.144 -2.591)"/><linearGradient x1="234.97" y1="168.125" x2="254.013" y2="155.02" id="aD" xlink:href="#o" gradientUnits="userSpaceOnUse" gradientTransform="translate(-166.144 -2.591)"/><linearGradient x1="260.613" y1="164.976" x2="264.9" y2="160.667" id="bc" xlink:href="#C" gradientUnits="userSpaceOnUse"/><linearGradient x1="258.08" y1="164.557" x2="268.877" y2="164.557" id="bd" xlink:href="#D" gradientUnits="userSpaceOnUse"/><linearGradient x1="260.061" y1="159.872" x2="268.214" y2="166.678" id="be" xlink:href="#E" gradientUnits="userSpaceOnUse"/><linearGradient x1="260.613" y1="164.976" x2="264.9" y2="160.667" id="bf" xlink:href="#C" gradientUnits="userSpaceOnUse"/><linearGradient x1="258.08" y1="164.557" x2="268.877" y2="164.557" id="bg" xlink:href="#D" gradientUnits="userSpaceOnUse"/><linearGradient x1="260.061" y1="159.872" x2="268.214" y2="166.678" id="bh" xlink:href="#E" gradientUnits="userSpaceOnUse"/><linearGradient x1="260.613" y1="164.976" x2="264.9" y2="160.667" id="bi" xlink:href="#C" gradientUnits="userSpaceOnUse"/><linearGradient x1="258.08" y1="164.557" x2="268.877" y2="164.557" id="bj" xlink:href="#D" gradientUnits="userSpaceOnUse"/><linearGradient x1="260.061" y1="159.872" x2="268.214" y2="166.678" id="bk" xlink:href="#E" gradientUnits="userSpaceOnUse"/><linearGradient x1="260.613" y1="164.976" x2="264.9" y2="160.667" id="bl" xlink:href="#C" gradientUnits="userSpaceOnUse"/><linearGradient x1="258.08" y1="164.557" x2="268.877" y2="164.557" id="bm" xlink:href="#D" gradientUnits="userSpaceOnUse"/><linearGradient x1="260.061" y1="159.872" x2="268.214" y2="166.678" id="bn" xlink:href="#E" gradientUnits="userSpaceOnUse"/><linearGradient x1="260.613" y1="164.976" x2="264.9" y2="160.667" id="bo" xlink:href="#C" gradientUnits="userSpaceOnUse"/><linearGradient x1="258.08" y1="164.557" x2="268.877" y2="164.557" id="bp" xlink:href="#D" gradientUnits="userSpaceOnUse"/><linearGradient x1="260.061" y1="159.872" x2="268.214" y2="166.678" id="bq" xlink:href="#E" gradientUnits="userSpaceOnUse"/><linearGradient x1="260.613" y1="164.976" x2="264.9" y2="160.667" id="br" xlink:href="#C" gradientUnits="userSpaceOnUse"/><linearGradient x1="258.08" y1="164.557" x2="268.877" y2="164.557" id="bs" xlink:href="#D" gradientUnits="userSpaceOnUse"/><linearGradient x1="260.061" y1="159.872" x2="268.214" y2="166.678" id="bt" xlink:href="#E" gradientUnits="userSpaceOnUse"/><linearGradient x1="316.342" y1="151.835" x2="315.225" y2="153.559" id="bu" xlink:href="#F" gradientUnits="userSpaceOnUse"/><linearGradient x1="314.969" y1="145.125" x2="313.5" y2="148.313" id="bv" xlink:href="#G" gradientUnits="userSpaceOnUse"/><linearGradient x1="260.613" y1="164.976" x2="264.9" y2="160.667" id="Z" xlink:href="#C" gradientUnits="userSpaceOnUse"/><linearGradient x1="258.08" y1="164.557" x2="268.877" y2="164.557" id="aa" xlink:href="#D" gradientUnits="userSpaceOnUse"/><linearGradient x1="260.061" y1="159.872" x2="268.214" y2="166.678" id="ab" xlink:href="#E" gradientUnits="userSpaceOnUse"/><linearGradient x1="260.613" y1="164.976" x2="264.9" y2="160.667" id="ac" xlink:href="#C" gradientUnits="userSpaceOnUse"/><linearGradient x1="258.08" y1="164.557" x2="268.877" y2="164.557" id="ad" xlink:href="#D" gradientUnits="userSpaceOnUse"/><linearGradient x1="260.061" y1="159.872" x2="268.214" y2="166.678" id="ae" xlink:href="#E" gradientUnits="userSpaceOnUse"/><linearGradient x1="260.613" y1="164.976" x2="264.9" y2="160.667" id="af" xlink:href="#C" gradientUnits="userSpaceOnUse"/><linearGradient x1="258.08" y1="164.557" x2="268.877" y2="164.557" id="ag" xlink:href="#D" gradientUnits="userSpaceOnUse"/><linearGradient x1="260.061" y1="159.872" x2="268.214" y2="166.678" id="ah" xlink:href="#E" gradientUnits="userSpaceOnUse"/><linearGradient x1="260.613" y1="164.976" x2="264.9" y2="160.667" id="ai" xlink:href="#C" gradientUnits="userSpaceOnUse"/><linearGradient x1="258.08" y1="164.557" x2="268.877" y2="164.557" id="aj" xlink:href="#D" gradientUnits="userSpaceOnUse"/><linearGradient x1="260.061" y1="159.872" x2="268.214" y2="166.678" id="ak" xlink:href="#E" gradientUnits="userSpaceOnUse"/><linearGradient x1="260.613" y1="164.976" x2="264.9" y2="160.667" id="am" xlink:href="#C" gradientUnits="userSpaceOnUse"/><linearGradient x1="258.08" y1="164.557" x2="268.877" y2="164.557" id="an" xlink:href="#D" gradientUnits="userSpaceOnUse"/><linearGradient x1="260.061" y1="159.872" x2="268.214" y2="166.678" id="ao" xlink:href="#E" gradientUnits="userSpaceOnUse"/><linearGradient x1="216.963" y1="138.769" x2="213.104" y2="141.752" id="ap" xlink:href="#J" gradientUnits="userSpaceOnUse"/><linearGradient x1="216.813" y1="135.25" x2="211.094" y2="136.063" id="al" xlink:href="#K" gradientUnits="userSpaceOnUse"/><linearGradient x1="217.193" y1="140.086" x2="211.438" y2="143.836" id="aq" xlink:href="#L" gradientUnits="userSpaceOnUse"/><linearGradient x1="260.613" y1="164.976" x2="264.9" y2="160.667" id="ar" xlink:href="#C" gradientUnits="userSpaceOnUse"/><linearGradient x1="258.08" y1="164.557" x2="268.877" y2="164.557" id="as" xlink:href="#D" gradientUnits="userSpaceOnUse"/><linearGradient x1="260.061" y1="159.872" x2="268.214" y2="166.678" id="at" xlink:href="#E" gradientUnits="userSpaceOnUse"/><linearGradient x1="251.2" y1="36.216" x2="224.948" y2="50.624" id="bK" xlink:href="#M" gradientUnits="userSpaceOnUse" gradientTransform="matrix(.86543 -.30605 .33228 .7971 4.271 88.798)"/><linearGradient x1="248.777" y1="23.55" x2="219.152" y2="42.675" id="bL" xlink:href="#a" gradientUnits="userSpaceOnUse" gradientTransform="matrix(.86543 -.30605 .33228 .7971 4.271 88.798)"/><radialGradient cx="252.25" cy="74.5" r="11.625" fx="252.25" fy="74.5" id="aR" xlink:href="#N" gradientUnits="userSpaceOnUse"/><radialGradient cx="271.625" cy="73" r="7.5" fx="271.625" fy="73" id="aO" xlink:href="#N" gradientUnits="userSpaceOnUse"/><radialGradient cx="265.549" cy="126.676" r="25.381" fx="265.549" fy="126.676" id="aE" xlink:href="#N" gradientUnits="userSpaceOnUse" gradientTransform="matrix(1 -.36444 .47618 1.3066 -59.426 60.434)"/><radialGradient cx="213.781" cy="122.938" r="4.344" fx="213.781" fy="122.938" id="ax" xlink:href="#O" gradientUnits="userSpaceOnUse" gradientTransform="matrix(1 0 0 1.02158 0 -2.653)"/><radialGradient cx="213.781" cy="122.938" r="4.344" fx="213.781" fy="122.938" id="av" xlink:href="#P" gradientUnits="userSpaceOnUse" gradientTransform="matrix(1 0 0 1.02158 0 -2.653)"/><radialGradient cx="325.755" cy="121.113" r="15.951" fx="325.755" fy="121.113" id="V" xlink:href="#Q" gradientUnits="userSpaceOnUse" gradientTransform="matrix(1 0 0 .63427 0 44.295)"/><radialGradient cx="333.5" cy="131.813" r="20.35" fx="333.5" fy="131.813" id="W" xlink:href="#R" gradientUnits="userSpaceOnUse" gradientTransform="matrix(1 0 0 .9048 0 12.55)"/><filter id="bJ"><feGaussianBlur stdDeviation=".106"/></filter><filter id="bG" width="1.335" height="1.354" x="-.167" y="-.177"><feGaussianBlur stdDeviation=".165"/></filter><mask id="bM"><path d="M248.83 16.556c2.614 5.309-4.894 14.743-16.76 21.058-11.864 6.315-23.615 7.132-26.23 1.823-2.614-5.309 4.894-14.743 16.759-21.059 11.865-6.315 23.616-7.132 26.23-1.822" style="opacity:1;fill:#fff;fill-opacity:1;stroke:none;stroke-width:5;stroke-miterlimit:4;stroke-opacity:1"/></mask></defs><g style="display:inline"/><g/><g style="display:inline"/><g style="display:inline"/><g style="display:inline"/><g style="display:inline"/><g style="display:inline"/><g/><g style="display:inline"/><g style="display:inline"/><g style="display:inline"/><g style="display:inline"/><g style="display:inline"><path d="M320.187 113.6c.177-.75.84-11.534 1.016-12.683.177-1.15 5.436-.398 5.436-.398s.972-2.873 1.459-3.094c.486-.22 13.17 1.724 14.053 2.917s-3.093 5.082-2.696 5.348c.398.265 3.624 3.27 3.624 3.27s3.182-3.403 4.773-2.917 9.325 9.193 7.071 9.855-11.313 2.033-13.435 3.713c-2.12 1.68-2.784 2.298-2.784 2.298s-4.773-4.994-9.59-6.099-8.839-2.033-8.927-2.21" style="opacity:1;fill:url(#S);fill-opacity:1;stroke:#3a250c;stroke-width:.69999999;stroke-linecap:round;stroke-linejoin:round;stroke-miterlimit:4;stroke-dasharray:none;stroke-opacity:1" transform="translate(-152.649 18.238)scale(.98453)"/><path d="m326.32 101.809-2.83 11.314-2.21-.265z" style="opacity:.2;fill:url(#T);fill-opacity:1;stroke:none;stroke-width:.69999999;stroke-linecap:round;stroke-linejoin:round;stroke-miterlimit:4;stroke-dasharray:none;stroke-opacity:1" transform="translate(-152.649 18.238)scale(.98453)"/><path d="m337.909 107.811-5.834 9.104 4.154 2.298 6.187-9.546s-3.8 5.657-4.33 3.005c-.53-2.651 0-4.684-.177-4.861" style="opacity:.2;fill:url(#U);fill-opacity:1;stroke:none;stroke-width:.69999999;stroke-linecap:round;stroke-linejoin:round;stroke-miterlimit:4;stroke-dasharray:none;stroke-opacity:1" transform="translate(-152.649 18.238)scale(.98453)"/><path d="M341.356 121.113a15.6 9.767 0 1 1-31.201 0 15.6 9.767 0 1 1 31.2 0" transform="matrix(.77233 .32903 -.17984 .42214 -58.657 -22.379)" style="opacity:1;fill:url(#V);fill-opacity:1;stroke:#584b39;stroke-width:.69999999;stroke-linecap:round;stroke-linejoin:round;stroke-miterlimit:4;stroke-dasharray:none;stroke-opacity:1"/><path d="M353.5 131.813a20 18.063 0 1 1-40 0 20 18.063 0 1 1 40 0" transform="rotate(12.257 154.48 -624.016)scale(.98453)" style="fill:url(#W);fill-opacity:1;stroke:#3a250c;stroke-width:.70000005;stroke-linecap:round;stroke-linejoin:round;stroke-miterlimit:4;stroke-dasharray:none;stroke-opacity:1"/><path d="M321.766 116.408c-7.523-.319-13.838 3.008-14.775 8.207a7.4 7.4 0 0 0-.092 1.654c3.427-2.26 8.06-3.474 13.079-3.1 8.533.634 15.309 5.67 16.608 11.796 1.376-1.262 2.31-2.785 2.625-4.537 1.07-5.942-5.284-12.08-14.18-13.683-1.112-.2-2.19-.292-3.265-.337" style="opacity:.4;fill:url(#X);fill-opacity:1;stroke:none;stroke-width:.30000001;stroke-linecap:round;stroke-linejoin:round;stroke-miterlimit:4;stroke-dasharray:none;stroke-opacity:1" transform="translate(-152.649 18.238)scale(.98453)"/><path d="M304.082 127.682a14.3 14.3 0 0 0-1.15 5.481c-.065 9.263 8.836 16.854 19.892 16.932 7.12.05 13.371-3.062 16.956-7.73-3.563 1.732-7.841 2.841-12.495 3.006-12.688.45-23.231-6.125-23.534-14.676a10.7 10.7 0 0 1 .33-3.013" style="opacity:.4;fill:url(#Y);fill-opacity:1;stroke:none;stroke-width:.69999999;stroke-linecap:round;stroke-linejoin:round;stroke-miterlimit:4;stroke-dasharray:none;stroke-opacity:1" transform="translate(-152.649 18.238)scale(.98453)"/><path d="M307.199 138.295c-.545.298-.933.72-1.032 1.25-.233 1.255 1.144 2.574 3.094 2.937s3.735-.37 3.969-1.625c-.637.637-1.588 1.032-2.656 1.032-1.915 0-3.47-1.302-3.47-2.907 0-.235.032-.468.095-.687m14.124 6.125c-.357.507-.52 1.057-.376 1.576.342 1.23 2.16 1.809 4.07 1.277 1.912-.532 3.192-1.976 2.85-3.205-.292.852-.973 1.624-1.932 2.094-1.72.843-3.688.357-4.394-1.084a2.5 2.5 0 0 1-.218-.658" style="opacity:.25;fill:#000;fill-opacity:1;stroke:none;stroke-width:.69999999;stroke-linecap:round;stroke-linejoin:round;stroke-miterlimit:4;stroke-dasharray:none;stroke-opacity:1" transform="translate(-152.649 18.238)scale(.98453)"/><path d="M323.498 146.482c-.16 1.595-1.762 2.85-3.73 2.85-1.61 0-2.976-.837-3.51-2.015a1.6 1.6 0 0 0-.028.26c0 1.414 1.708 2.562 3.812 2.562s3.813-1.148 3.813-2.563c0-.385-.13-.766-.357-1.094m-12.143-3.437c-.391.4-.625.873-.625 1.375 0 1.466 1.918 2.656 4.281 2.656 2.206 0 3.986-1.045 4.219-2.375-.763.854-2.084 1.438-3.594 1.438-2.363 0-4.281-1.386-4.281-3.094m20.955 2.812c-.159 1.595-1.761 2.85-3.73 2.85-1.609 0-2.975-.837-3.51-2.015-.013.085-.028.172-.028.26 0 1.414 1.708 2.562 3.813 2.562 2.104 0 3.812-1.148 3.812-2.563 0-.385-.13-.766-.356-1.094m4.388-3.343c-.565 1.265-2.257 2.187-4.282 2.187a5.9 5.9 0 0 1-2.5-.531c.59.786 1.83 1.344 3.282 1.344 2.018 0 3.656-1.05 3.656-2.344 0-.231-.06-.446-.156-.656m-4.563-3.469c-.273 2.01-2.86 3.587-6.062 3.687a5.6 5.6 0 0 0 2.437.532c2.329 0 4.219-1.26 4.219-2.813 0-.517-.228-.99-.594-1.406" style="opacity:.25;fill:#000;fill-opacity:1;stroke:none;stroke-width:.69999999;stroke-linecap:round;stroke-linejoin:round;stroke-miterlimit:4;stroke-dasharray:none;stroke-opacity:1" transform="translate(-152.649 18.238)scale(.98453)"/><path d="m316.978 131.913-.756.81 1.106.42c-.593 2.911.647 5.4 3.154 6.35 1.345.509 2.492.462 3.709-.174l.66-1.617c-1.423 1.347-2.478 1.64-3.898 1.103-1.916-.725-2.494-2.387-1.708-4.937l4.497 1.702.756-.81-4.921-1.863.51-1.25 5.271 1.995.756-.81-5.566-2.107c1.309-2.372 2.883-3.257 4.634-2.595.921.349 1.696 1.162 1.94 2.024.139.495.188 1.052.168 1.987l.645.244 1.258-3.448-.571-.217-.996.72c-.722-1.254-1.198-1.704-2.212-2.088-1.714-.648-3.583-.24-5.336 1.136-.57.458-.983.898-1.428 1.518l-.792-.3-.757.811 1.014.384c-.14.293-.209.46-.325.743-.047.116-.108.266-.185.507z" style="font-size:12px;font-style:normal;font-weight:400;opacity:.45733786;fill:#000;fill-opacity:1;stroke:none;stroke-width:1px;stroke-linecap:butt;stroke-linejoin:miter;stroke-opacity:1;font-family:Bitstream Vera Sans" transform="translate(-152.649 18.238)scale(.98453)"/></g><path d="M263.506 160.052c-2.941 0-5.334 1.072-5.53 2.437h-.032v1.375c-.013.061-.031.125-.031.188 0 1.449 2.492 2.625 5.562 2.625s5.563-1.176 5.563-2.625v-1.188c.012-.06.03-.125.03-.187 0-.09-.011-.193-.03-.281v-.063h-.032c-.35-1.29-2.67-2.281-5.5-2.281" style="opacity:1;fill:url(#Z);fill-opacity:1;stroke:#7f6604;stroke-width:.33399999;stroke-linecap:round;stroke-linejoin:round;stroke-miterlimit:4;stroke-dasharray:none;stroke-opacity:1" transform="translate(-264.039 -23.598)scale(1.1315)"/><path d="M258.116 162.612s2.541 1.9 5.414 1.9 5.347-1.944 5.347-1.944l-.044 1.878s-1.569 2.165-4.927 2.099c-3.36-.066-5.569-1.215-5.746-2.055s0-1.834-.044-1.878" style="opacity:.3;fill:url(#aa);fill-opacity:1;stroke:none;stroke-width:.33399999;stroke-linecap:round;stroke-linejoin:round;stroke-miterlimit:4;stroke-dasharray:none;stroke-opacity:1" transform="translate(-264.039 -23.598)scale(1.1315)"/><path d="M267.22 162.822a3.8 1.27 0 1 1-7.601 0 3.8 1.27 0 1 1 7.601 0" transform="matrix(1.1315 0 0 1.348 -263.94 -59.67)" style="opacity:1;fill:#adadad;fill-opacity:1;stroke:none;stroke-width:.33399999;stroke-linecap:round;stroke-linejoin:round;stroke-miterlimit:4;stroke-dasharray:none;stroke-opacity:1"/><path d="M260.282 160.733s3.624.553 4.375 1.37.486 2.232.486 2.232.685.509.663 1.105c-.022.597-.31.928-.31.928s1.57-.453 1.79-.53c0 0-.524-.437-.613-.856-.088-.42.895-1.613.895-1.613s-2.8-1.398-3.022-2.039c-.22-.64.2-1.06.2-1.06s-1.769-.067-2.431.022c-.663.088-2.011.486-2.033.441" style="opacity:.3;fill:url(#ab);fill-opacity:1;stroke:none;stroke-width:.33399999;stroke-linecap:round;stroke-linejoin:round;stroke-miterlimit:4;stroke-dasharray:none;stroke-opacity:1" transform="translate(-264.039 -23.598)scale(1.1315)"/><path d="M263.506 160.052c-2.941 0-5.334 1.072-5.53 2.437h-.032v1.375c-.013.061-.031.125-.031.188 0 1.449 2.492 2.625 5.562 2.625s5.563-1.176 5.563-2.625v-1.188c.012-.06.03-.125.03-.187 0-.09-.011-.193-.03-.281v-.063h-.032c-.35-1.29-2.67-2.281-5.5-2.281" style="opacity:1;fill:url(#ac);fill-opacity:1;stroke:#7f6604;stroke-width:.33399999;stroke-linecap:round;stroke-linejoin:round;stroke-miterlimit:4;stroke-dasharray:none;stroke-opacity:1" transform="translate(-262.859 -27.373)scale(1.1315)"/><path d="M258.116 162.612s2.541 1.9 5.414 1.9 5.347-1.944 5.347-1.944l-.044 1.878s-1.569 2.165-4.927 2.099c-3.36-.066-5.569-1.215-5.746-2.055s0-1.834-.044-1.878" style="opacity:.3;fill:url(#ad);fill-opacity:1;stroke:none;stroke-width:.33399999;stroke-linecap:round;stroke-linejoin:round;stroke-miterlimit:4;stroke-dasharray:none;stroke-opacity:1" transform="translate(-262.859 -27.373)scale(1.1315)"/><path d="M267.22 162.822a3.8 1.27 0 1 1-7.601 0 3.8 1.27 0 1 1 7.601 0" transform="matrix(1.1315 0 0 1.348 -262.76 -63.444)" style="opacity:1;fill:#adadad;fill-opacity:1;stroke:none;stroke-width:.33399999;stroke-linecap:round;stroke-linejoin:round;stroke-miterlimit:4;stroke-dasharray:none;stroke-opacity:1"/><path d="M260.282 160.733s3.624.553 4.375 1.37.486 2.232.486 2.232.685.509.663 1.105c-.022.597-.31.928-.31.928s1.57-.453 1.79-.53c0 0-.524-.437-.613-.856-.088-.42.895-1.613.895-1.613s-2.8-1.398-3.022-2.039c-.22-.64.2-1.06.2-1.06s-1.769-.067-2.431.022c-.663.088-2.011.486-2.033.441" style="opacity:.3;fill:url(#ae);fill-opacity:1;stroke:none;stroke-width:.33399999;stroke-linecap:round;stroke-linejoin:round;stroke-miterlimit:4;stroke-dasharray:none;stroke-opacity:1" transform="translate(-262.859 -27.373)scale(1.1315)"/><path d="M263.506 160.052c-2.941 0-5.334 1.072-5.53 2.437h-.032v1.375c-.013.061-.031.125-.031.188 0 1.449 2.492 2.625 5.562 2.625s5.563-1.176 5.563-2.625v-1.188c.012-.06.03-.125.03-.187 0-.09-.011-.193-.03-.281v-.063h-.032c-.35-1.29-2.67-2.281-5.5-2.281" style="opacity:1;fill:url(#af);fill-opacity:1;stroke:#7f6604;stroke-width:.33399999;stroke-linecap:round;stroke-linejoin:round;stroke-miterlimit:4;stroke-dasharray:none;stroke-opacity:1" transform="translate(-282.246 -36.003)scale(1.23421)"/><path d="M258.116 162.612s2.541 1.9 5.414 1.9 5.347-1.944 5.347-1.944l-.044 1.878s-1.569 2.165-4.927 2.099c-3.36-.066-5.569-1.215-5.746-2.055s0-1.834-.044-1.878" style="opacity:.3;fill:url(#ag);fill-opacity:1;stroke:none;stroke-width:.33399999;stroke-linecap:round;stroke-linejoin:round;stroke-miterlimit:4;stroke-dasharray:none;stroke-opacity:1" transform="translate(-282.246 -36.003)scale(1.23421)"/><path d="M267.22 162.822a3.8 1.27 0 1 1-7.601 0 3.8 1.27 0 1 1 7.601 0" transform="matrix(1.2342 0 0 1.4703 -282.137 -75.347)" style="opacity:1;fill:#adadad;fill-opacity:1;stroke:none;stroke-width:.33399999;stroke-linecap:round;stroke-linejoin:round;stroke-miterlimit:4;stroke-dasharray:none;stroke-opacity:1"/><path d="M260.282 160.733s3.624.553 4.375 1.37.486 2.232.486 2.232.685.509.663 1.105c-.022.597-.31.928-.31.928s1.57-.453 1.79-.53c0 0-.524-.437-.613-.856-.088-.42.895-1.613.895-1.613s-2.8-1.398-3.022-2.039c-.22-.64.2-1.06.2-1.06s-1.769-.067-2.431.022c-.663.088-2.011.486-2.033.441" style="opacity:.3;fill:url(#ah);fill-opacity:1;stroke:none;stroke-width:.33399999;stroke-linecap:round;stroke-linejoin:round;stroke-miterlimit:4;stroke-dasharray:none;stroke-opacity:1" transform="translate(-282.246 -36.003)scale(1.23421)"/><path d="M263.506 160.052c-2.941 0-5.334 1.072-5.53 2.437h-.032v1.375c-.013.061-.031.125-.031.188 0 1.449 2.492 2.625 5.562 2.625s5.563-1.176 5.563-2.625v-1.188c.012-.06.03-.125.03-.187 0-.09-.011-.193-.03-.281v-.063h-.032c-.35-1.29-2.67-2.281-5.5-2.281" style="opacity:1;fill:url(#ai);fill-opacity:1;stroke:#7f6604;stroke-width:.33399999;stroke-linecap:round;stroke-linejoin:round;stroke-miterlimit:4;stroke-dasharray:none;stroke-opacity:1" transform="translate(-264.51 -31.384)scale(1.1315)"/><path d="M258.116 162.612s2.541 1.9 5.414 1.9 5.347-1.944 5.347-1.944l-.044 1.878s-1.569 2.165-4.927 2.099c-3.36-.066-5.569-1.215-5.746-2.055s0-1.834-.044-1.878" style="opacity:.3;fill:url(#aj);fill-opacity:1;stroke:none;stroke-width:.33399999;stroke-linecap:round;stroke-linejoin:round;stroke-miterlimit:4;stroke-dasharray:none;stroke-opacity:1" transform="translate(-264.51 -31.384)scale(1.1315)"/><path d="M267.22 162.822a3.8 1.27 0 1 1-7.601 0 3.8 1.27 0 1 1 7.601 0" transform="matrix(1.1315 0 0 1.348 -264.41 -67.455)" style="opacity:1;fill:#adadad;fill-opacity:1;stroke:none;stroke-width:.33399999;stroke-linecap:round;stroke-linejoin:round;stroke-miterlimit:4;stroke-dasharray:none;stroke-opacity:1"/><path d="M260.282 160.733s3.624.553 4.375 1.37.486 2.232.486 2.232.685.509.663 1.105c-.022.597-.31.928-.31.928s1.57-.453 1.79-.53c0 0-.524-.437-.613-.856-.088-.42.895-1.613.895-1.613s-2.8-1.398-3.022-2.039c-.22-.64.2-1.06.2-1.06s-1.769-.067-2.431.022c-.663.088-2.011.486-2.033.441" style="opacity:.3;fill:url(#ak);fill-opacity:1;stroke:none;stroke-width:.33399999;stroke-linecap:round;stroke-linejoin:round;stroke-miterlimit:4;stroke-dasharray:none;stroke-opacity:1" transform="translate(-264.51 -31.384)scale(1.1315)"/><path d="M214.5 134.438c-.637.29-1.031.664-1.031 1.062 0 .94 2.136 1.688 4.75 1.688.88 0 1.668-.1 2.375-.25-.555.098-1.141.156-1.781.156-2.562 0-4.657-.868-4.657-1.938 0-.255.13-.496.344-.719m6.094 2.5c.204-.044.41-.072.594-.125a10 10 0 0 1-.594.125" style="opacity:.4;fill:url(#al);fill-opacity:1;stroke:none;stroke-width:.33399999;stroke-linecap:round;stroke-linejoin:round;stroke-miterlimit:4;stroke-dasharray:none;stroke-opacity:1" transform="translate(-255.894 -29.255)scale(1.33483)"/><path d="M263.506 160.052c-2.941 0-5.334 1.072-5.53 2.437h-.032v1.375c-.013.061-.031.125-.031.188 0 1.449 2.492 2.625 5.562 2.625s5.563-1.176 5.563-2.625v-1.188c.012-.06.03-.125.03-.187 0-.09-.011-.193-.03-.281v-.063h-.032c-.35-1.29-2.67-2.281-5.5-2.281" style="opacity:1;fill:url(#am);fill-opacity:1;stroke:#7f6604;stroke-width:.33399999;stroke-linecap:round;stroke-linejoin:round;stroke-miterlimit:4;stroke-dasharray:none;stroke-opacity:1" transform="translate(-261.914 -34.924)scale(1.1315)"/><path d="M258.116 162.612s2.541 1.9 5.414 1.9 5.347-1.944 5.347-1.944l-.044 1.878s-1.569 2.165-4.927 2.099c-3.36-.066-5.569-1.215-5.746-2.055s0-1.834-.044-1.878" style="opacity:.3;fill:url(#an);fill-opacity:1;stroke:none;stroke-width:.33399999;stroke-linecap:round;stroke-linejoin:round;stroke-miterlimit:4;stroke-dasharray:none;stroke-opacity:1" transform="translate(-261.914 -34.924)scale(1.1315)"/><path d="M267.22 162.822a3.8 1.27 0 1 1-7.601 0 3.8 1.27 0 1 1 7.601 0" transform="matrix(1.1315 0 0 1.348 -261.814 -70.995)" style="opacity:1;fill:#adadad;fill-opacity:1;stroke:none;stroke-width:.33399999;stroke-linecap:round;stroke-linejoin:round;stroke-miterlimit:4;stroke-dasharray:none;stroke-opacity:1"/><path d="M260.282 160.733s3.624.553 4.375 1.37.486 2.232.486 2.232.685.509.663 1.105c-.022.597-.31.928-.31.928s1.57-.453 1.79-.53c0 0-.524-.437-.613-.856-.088-.42.895-1.613.895-1.613s-2.8-1.398-3.022-2.039c-.22-.64.2-1.06.2-1.06s-1.769-.067-2.431.022c-.663.088-2.011.486-2.033.441" style="opacity:.3;fill:url(#ao);fill-opacity:1;stroke:none;stroke-width:.33399999;stroke-linecap:round;stroke-linejoin:round;stroke-miterlimit:4;stroke-dasharray:none;stroke-opacity:1" transform="translate(-261.914 -34.924)scale(1.1315)"/><path d="M217.7 139.63s-1.944.487-2.342.575c-.398.089-.795-.265-.795-.265v1.812s-.928-.398-1.017-.884.044-1.635.044-1.635 1.15.796 4.11.398" style="opacity:.4;fill:url(#ap);fill-opacity:1;stroke:none;stroke-width:.33399999;stroke-linecap:round;stroke-linejoin:round;stroke-miterlimit:4;stroke-dasharray:none;stroke-opacity:1" transform="translate(-255.894 -29.255)scale(1.33483)"/><path d="M219.438 142.75s-5 0-5.5-.156-.97-.344-.97-.344.032 1.188-.218 1.219-.031-1.438-.031-1.438.312-.812.594-.937c.28-.125.125-.063.125-.063s.062.5.593.719 0 .813 5.406 1" style="opacity:.4;fill:url(#aq);fill-opacity:1;stroke:none;stroke-width:.33399999;stroke-linecap:round;stroke-linejoin:round;stroke-miterlimit:4;stroke-dasharray:none;stroke-opacity:1" transform="translate(-255.894 -29.255)scale(1.33483)"/><path d="M263.506 160.052c-2.941 0-5.334 1.072-5.53 2.437h-.032v1.375c-.013.061-.031.125-.031.188 0 1.449 2.492 2.625 5.562 2.625s5.563-1.176 5.563-2.625v-1.188c.012-.06.03-.125.03-.187 0-.09-.011-.193-.03-.281v-.063h-.032c-.35-1.29-2.67-2.281-5.5-2.281" style="opacity:1;fill:url(#ar);fill-opacity:1;stroke:#7f6604;stroke-width:.33399999;stroke-linecap:round;stroke-linejoin:round;stroke-miterlimit:4;stroke-dasharray:none;stroke-opacity:1" transform="translate(-332.473 -46.187)scale(1.33483)"/><path d="M258.116 162.612s2.541 1.9 5.414 1.9 5.347-1.944 5.347-1.944l-.044 1.878s-1.569 2.165-4.927 2.099c-3.36-.066-5.569-1.215-5.746-2.055s0-1.834-.044-1.878" style="opacity:.3;fill:url(#as);fill-opacity:1;stroke:none;stroke-width:.33399999;stroke-linecap:round;stroke-linejoin:round;stroke-miterlimit:4;stroke-dasharray:none;stroke-opacity:1" transform="translate(-332.473 -46.187)scale(1.33483)"/><path d="M267.22 162.822a3.8 1.27 0 1 1-7.601 0 3.8 1.27 0 1 1 7.601 0" transform="matrix(1.3348 0 0 1.5902 -332.356 -88.74)" style="opacity:1;fill:#adadad;fill-opacity:1;stroke:none;stroke-width:.33399999;stroke-linecap:round;stroke-linejoin:round;stroke-miterlimit:4;stroke-dasharray:none;stroke-opacity:1"/><path d="M260.282 160.733s3.624.553 4.375 1.37.486 2.232.486 2.232.685.509.663 1.105c-.022.597-.31.928-.31.928s1.57-.453 1.79-.53c0 0-.524-.437-.613-.856-.088-.42.895-1.613.895-1.613s-2.8-1.398-3.022-2.039c-.22-.64.2-1.06.2-1.06s-1.769-.067-2.431.022c-.663.088-2.011.486-2.033.441" style="opacity:.3;fill:url(#at);fill-opacity:1;stroke:none;stroke-width:.33399999;stroke-linecap:round;stroke-linejoin:round;stroke-miterlimit:4;stroke-dasharray:none;stroke-opacity:1" transform="translate(-332.473 -46.187)scale(1.33483)"/><g style="display:inline"><path d="m214.313 127.625 13.125 31s1 .563 2 .375 1.562-.75 1.562-.75L217.25 126z" style="opacity:1;fill:url(#au);fill-opacity:1;stroke:none;stroke-width:.60000002;stroke-linecap:round;stroke-linejoin:round;stroke-miterlimit:4;stroke-dasharray:none;stroke-opacity:1" transform="translate(-255.894 -29.255)scale(1.33483)"/><path d="m217.469 126.625-3.031 1.313.468 1.093s.062.033.125.063L227.47 158.5s.938.443 1.469.531c.53.089 1.28-.219 1.28-.219l.845-.53-.25-.25c.045.032.069.117-.594.25-.884.176-1.656-.095-1.656-.095l-12.313-28.78c.274.027.536.038.781-.063.862-.354 1.313-.906 1.313-.906z" style="opacity:.15;fill:#000;fill-opacity:1;stroke:none;stroke-width:.60000002;stroke-linecap:round;stroke-linejoin:round;stroke-miterlimit:4;stroke-dasharray:none;stroke-opacity:1" transform="translate(-255.894 -29.255)scale(1.33483)"/><path d="M218.125 122.938a4.344 4.438 0 1 1-8.687 0 4.344 4.438 0 1 1 8.687 0" transform="matrix(.8661 -.18035 -.02243 .50425 -150.501 115.997)" style="opacity:1;fill:url(#av);fill-opacity:1;stroke:none;stroke-width:.60000002;stroke-linecap:round;stroke-linejoin:round;stroke-miterlimit:4;stroke-dasharray:none;stroke-opacity:1"/><path d="M218.032 126.361a2.663.94 0 1 1-5.325 0 2.663.94 0 1 1 5.325 0" transform="rotate(-19.231 71.246 909.655)scale(1.33483)" style="opacity:.2;fill:#000;fill-opacity:1;stroke:none;stroke-width:.60000002;stroke-linecap:round;stroke-linejoin:round;stroke-miterlimit:4;stroke-dasharray:none;stroke-opacity:1"/><path d="M216.156 124.844c-.156.013-.333.059-.5.094-.065.013-.123.014-.187.03 1.233-.03 2.099.524 2.062 1.407a1.5 1.5 0 0 1-.125.531c.366-.324.61-.71.625-1.062.031-.694-.78-1.095-1.875-1" style="opacity:.7;fill:url(#aw);fill-opacity:1;stroke:none;stroke-width:.60000002;stroke-linecap:round;stroke-linejoin:round;stroke-miterlimit:4;stroke-dasharray:none;stroke-opacity:1" transform="translate(-255.894 -29.255)scale(1.33483)"/><path d="M218.125 122.938a4.344 4.438 0 1 1-8.687 0 4.344 4.438 0 1 1 8.687 0" transform="rotate(17.103 256.038 -701.894)scale(1.33483)" style="opacity:1;fill:url(#ax);fill-opacity:1;stroke:none;stroke-width:.60000002;stroke-linecap:round;stroke-linejoin:round;stroke-miterlimit:4;stroke-dasharray:none;stroke-opacity:1"/><path d="M214.219 121a2.36 2.125 0 1 1-4.719 0 2.36 2.125 0 1 1 4.719 0" transform="matrix(-1.3351 .88192 -.82192 -1.0782 410.169 75.46)" style="opacity:.2;fill:url(#ay);fill-opacity:1;stroke:none;stroke-width:.60000002;stroke-linecap:round;stroke-linejoin:round;stroke-miterlimit:4;stroke-dasharray:none;stroke-opacity:1"/><path d="M213.833 118.643c-1.883 0-3.432 1.516-3.687 3.47a3.64 3.64 0 0 1 2.437-.907c1.976 0 3.563 1.534 3.563 3.437 0 .5-.113.977-.313 1.407 1.045-.713 1.75-1.945 1.75-3.375 0-2.22-1.689-4.032-3.75-4.032" style="opacity:.7;fill:url(#az);fill-opacity:1;stroke:none;stroke-width:.60000002;stroke-linecap:round;stroke-linejoin:round;stroke-miterlimit:4;stroke-dasharray:none;stroke-opacity:1" transform="translate(-255.894 -29.255)scale(1.33483)"/><path d="M212.511 118.68c-.83.295-1.59.833-2.117 1.64-1.24 1.9-.777 4.42 1.04 5.607s4.312.6 5.553-1.3c.137-.21.219-.43.315-.653-1.28 1.576-3.388 2.08-4.922 1.077-1.655-1.08-2.014-3.487-.787-5.366.258-.395.58-.724.918-1.006" style="opacity:.2;fill:url(#aA);fill-opacity:1;stroke:none;stroke-width:.60000002;stroke-linecap:round;stroke-linejoin:round;stroke-miterlimit:4;stroke-dasharray:none;stroke-opacity:1" transform="translate(-255.894 -29.255)scale(1.33483)"/><path d="m218.54 129.554 11.535 27.533s-7.822-15.865-8.706-18.605-2.873-8.928-2.829-8.928" style="opacity:.15;fill:url(#aB);fill-opacity:1;stroke:none;stroke-width:.60000002;stroke-linecap:round;stroke-linejoin:round;stroke-miterlimit:4;stroke-dasharray:none;stroke-opacity:1" transform="translate(-255.894 -29.255)scale(1.33483)"/></g><path d="M74.637 145.628s-10.5 6.25-12.813 6.625c-2.312.375-8.812.437-8.812.437l3.562 2.313s-.75.625-1.75.687c-.954.06-1.062.125-1.062.125s.937 3.438.812 4.563-.562 2.25-.562 2.25 6.562 1.5 8.5 2.375 10 3.687 10 3.687 2.437-5.5 4.375-7c1.937-1.5 11-7.312 11-7.312l.187-5.188z" style="opacity:1;fill:#cadbcb;fill-opacity:1;stroke:#898989;stroke-width:.634;stroke-linecap:round;stroke-linejoin:round;stroke-miterlimit:4;stroke-dasharray:none;stroke-opacity:1;display:inline" transform="translate(-50.33 -30.59)scale(1.33483)"/><path d="m56.606 155.034 15 5.188-17.938-4.25s1.938-.25 2.938-.938" style="opacity:.5;fill:url(#aC);fill-opacity:1;stroke:none;stroke-width:.83399999;stroke-linecap:round;stroke-linejoin:round;stroke-miterlimit:4;stroke-dasharray:none;stroke-opacity:1;display:inline" transform="translate(-50.33 -30.59)scale(1.33483)"/><path d="M74.847 146.542s-9.325 6.143-11.624 6.496c-2.298.354-5.789.575-5.789.575l14.584 5.435 10.563-7.734z" style="opacity:.4;fill:#89af8b;fill-opacity:1;stroke:none;stroke-width:.634;stroke-linecap:round;stroke-linejoin:round;stroke-miterlimit:4;stroke-dasharray:none;stroke-opacity:1;display:inline" transform="translate(-50.33 -30.59)scale(1.33483)"/><path d="m66.047 150.808 14.589 4.44.177 3.712 5.215-3.447-.266-3.978-13.049-4.382z" style="opacity:1;fill:#e8f0e9;fill-opacity:1;stroke:none;stroke-width:.634;stroke-linecap:round;stroke-linejoin:round;stroke-miterlimit:4;stroke-dasharray:none;stroke-opacity:1;display:inline" transform="translate(-50.33 -30.59)scale(1.33483)"/><path d="M72.418 160.534s-.75 2.063-.562 3.875c.187 1.813.625 4.313.625 4.313s2.25-5.375 3.75-6.688 11.443-7.372 11.443-7.372l-1.594-3.595z" style="opacity:.3;fill:url(#aD);fill-opacity:1;stroke:none;stroke-width:.83399999;stroke-linecap:round;stroke-linejoin:round;stroke-miterlimit:4;stroke-dasharray:none;stroke-opacity:1;display:inline" transform="translate(-50.33 -30.59)scale(1.33483)"/><g style="display:inline"><path d="M243 100.875s-27.75 17.063-28.062 18.375-2.313 3.313-4.313 2.25c-2-1.062-2.812-4.125-2.562-4.75s20.875-24.187 24.687-24.5 10.938 4.938 10.938 4.938z" style="fill:#000;fill-opacity:1;fill-rule:evenodd;stroke:none;stroke-width:1px;stroke-linecap:butt;stroke-linejoin:miter;stroke-opacity:1" transform="translate(-255.894 -29.255)scale(1.33483)"/><path d="M272.59 64.412s-11.844-17.324-27.577-12.728-21.037 7.248-22.098 16.617 12.375 30.936 12.728 35.356c.354 4.42 3.713 22.45.53 27.223-3.181 4.773-18.207 26.163 28.108 28.638 46.316 2.475 28.992-38.89 28.992-38.89s-11.49-17.678-12.375-18.209-1.768-.53-1.768-.53 3.006-1.06 3.006-2.828-8.132-3.713-10.43-7.779 1.06-15.202 1.06-15.202z" style="fill:#000;fill-opacity:1;fill-rule:evenodd;stroke:none;stroke-width:1px;stroke-linecap:butt;stroke-linejoin:miter;stroke-opacity:1" transform="translate(-255.894 -29.255)scale(1.33483)"/><path d="M266.245 88.875 256.121 91.5s.38 6.625-1.519 8.125c-1.898 1.5-3.164 1.25-2.531 2.875s2.151 2.375 2.151 2.375-8.732 16.125-7.846 25.75 9.112 24 20.123 27.875c1.914.674 4.107.963 6.422.969 36.252-2.718 20.946-38.844 20.946-38.844-3.801-9.28-7.834-14.064-12.53-18.219-.779-.689-1.803-.531-1.803-.531s3.037-1.045 3.037-2.812c0-1.768-8.209-3.716-10.536-7.782-.064-.112-.102-.253-.158-.375-3.305-1.35-5.632-2.031-5.632-2.031" style="opacity:1;fill:url(#aE);fill-opacity:1;fill-rule:evenodd;stroke:none;stroke-width:1px;stroke-linecap:butt;stroke-linejoin:miter;stroke-opacity:1" transform="translate(-255.894 -29.255)scale(1.33483)"/><path d="M249.563 52.188c-7.999 1.696-17.155 3.41-22.938 9.437-5.565 8.89 1.62 18.933 4.906 27.25a68 68 0 0 1 1.5 2.75q-.043.095-.094.188c-.875 1.562-9 9.25-16.187 17.687s2.25 2.25 2.625 2.625c.351.351 15.792-8.603 17.875-9.812.839 3.136 1.334 6.364 1.406 9.687.84 7.85 2.181 16.781-3.469 23.25-3.844 5.579-2.243 14.002 4.688 16.469 12.227 5.206 26.518 6.335 39.688 3.969 10.3-1.563 17.046-11.814 15.562-21.813-.008-9.26-4.96-17.14-10.469-24.281-2.35-3.578-4.227-7.888-9.375-7.531-6.28-1.181 2.793-1.708 4.938-3.5-5.522-2.304-12.339-6.44-10.938-13.438.824-7.021 2.973-13.904 1.531-21.031-5.076-6.282-12.561-12.291-21.25-11.906" style="opacity:.2081911;fill:url(#aF);fill-opacity:1;fill-rule:evenodd;stroke:none;stroke-width:1px;stroke-linecap:butt;stroke-linejoin:miter;stroke-opacity:1" transform="translate(-255.894 -29.255)scale(1.33483)"/><path d="M249.188 52.906c-2.31 0-4.561.32-6.657.938C254.005 55.015 263 66.066 263 79.5c0 4.766-1.12 9.233-3.094 13.063C266.814 88.97 271.5 82.015 271.5 74.03c0-11.66-9.996-21.125-22.312-21.125" style="opacity:.62457341;fill:url(#aG);fill-opacity:1;stroke:none;stroke-width:.40000001;stroke-linecap:round;stroke-linejoin:round;stroke-miterlimit:4;stroke-dasharray:none;stroke-opacity:1" transform="translate(-255.894 -29.255)scale(1.33483)"/><path d="M261.75 101.5s-9.375 4.625-11.625 4.25-5.738-4.01-8.875-3.594c-2.594.344-5.719 1-5.719 1s4.063-2.062 5.563-2.312 7.031 4.469 8.406 3.844 12.25-3.313 12.25-3.188" style="opacity:.5;fill:url(#aH);fill-opacity:1;fill-rule:evenodd;stroke:none;stroke-width:1px;stroke-linecap:butt;stroke-linejoin:miter;stroke-opacity:1" transform="translate(-255.894 -29.255)scale(1.33483)"/><path d="m279.875 101.688-7.75-1.188s7.313.125 8.313-.5 1.75-1.687 1.75-1.687.5.874.312 1.187c-.187.313-1.75 1.938-2.625 2.188" style="opacity:.4;fill:url(#aI);fill-opacity:1;fill-rule:evenodd;stroke:none;stroke-width:1px;stroke-linecap:butt;stroke-linejoin:miter;stroke-opacity:1" transform="translate(-255.894 -29.255)scale(1.33483)"/><path d="M281.154 104.518a23.5 23.5 0 0 0-7.339-2.998c4.956 5.76 7.844 14.07 8.36 23.492a22.2 22.2 0 0 1 7.484 2.94 22.4 22.4 0 0 1 3.39 2.596c.628-10.842-3.491-20.784-11.895-26.03" style="opacity:.4;fill:url(#aJ);fill-opacity:1;stroke:none;stroke-width:.40000001;stroke-linecap:round;stroke-linejoin:round;stroke-miterlimit:4;stroke-dasharray:none;stroke-opacity:1" transform="translate(-255.894 -29.255)scale(1.33483)"/><path d="M270.969 91.906s1.312 2.469 4.594 4.063c3.28 1.594 5.656 1.937 5.312 2.687s-5.75 1.438-5.75 1.438 3.844-.938.438-3c-3.407-2.063-9.97-3-9.97-3z" style="opacity:.4;fill:url(#aK);fill-opacity:1;fill-rule:evenodd;stroke:none;stroke-width:1px;stroke-linecap:butt;stroke-linejoin:miter;stroke-opacity:1" transform="translate(-255.894 -29.255)scale(1.33483)"/><path d="M242.795 123.632s17.83 22.098 28.883 21.92c11.054-.176 24.07-9.192 24.07-9.192s0 11.49-7.489 16.44-15.868 7.779-31.914 4.243-23.713-8.662-23-12.904c.714-4.243 9.272-20.86 9.45-20.507" style="opacity:.2;fill:url(#aL);fill-opacity:1;fill-rule:evenodd;stroke:none;stroke-width:1px;stroke-linecap:butt;stroke-linejoin:miter;stroke-opacity:1" transform="translate(-255.894 -29.255)scale(1.33483)"/><path d="M251.781 105.625s-4.125 2.813-5.375 2.5c-1.25-.312-4.406-1.531-6.437-1.312s-2.594.5-2.594.5-.906-2.626-.844-3.344c.063-.719 1.156-1.313 1.156-1.313s4.532-1 5.157-.812 6.187 3.5 7.156 3.594 2.188-.313 2.188-.313z" style="opacity:.7;fill:url(#aM);fill-opacity:1;fill-rule:evenodd;stroke:none;stroke-width:1px;stroke-linecap:butt;stroke-linejoin:miter;stroke-opacity:1" transform="translate(-255.894 -29.255)scale(1.33483)"/><path d="M256.326 99.502s-3.8 2.652-6.187 1.68c-2.386-.972-6.54-2.74-7.69-2.652-1.149.089-6.806.884-7.424 1.414-.62.53 3.447-3.005 5.568-3.182 2.121-.176 12.64 3.801 15.733 2.74" style="opacity:.2;fill:url(#aN);fill-opacity:1;fill-rule:evenodd;stroke:none;stroke-width:1px;stroke-linecap:butt;stroke-linejoin:miter;stroke-opacity:1" transform="translate(-255.894 -29.255)scale(1.33483)"/></g><g style="display:inline"><path d="M279.125 73a7.5 7.5 0 1 1-15 0 7.5 7.5 0 1 1 15 0" transform="translate(-257.074 -29.255)scale(1.33483)" style="opacity:1;fill:url(#aO);fill-opacity:1;stroke:none;stroke-width:2;stroke-miterlimit:4;stroke-dasharray:none;stroke-opacity:1"/><path d="M254.514 74.577a3.182 4.64 0 1 1-6.364 0 3.182 4.64 0 1 1 6.364 0" transform="matrix(.85281 0 0 .87717 -112.818 6.798)" style="opacity:1;fill:#000;fill-opacity:1;stroke:none;stroke-width:2;stroke-miterlimit:4;stroke-dasharray:none;stroke-opacity:1"/><path d="M249.281 75.469c-.334 0-.643.109-.937.281.8.272 1.459 1.072 1.812 2.125l1.25-.719c-.483-1.012-1.24-1.687-2.125-1.687" style="opacity:1;fill:url(#aP);fill-opacity:1;stroke:none;stroke-width:2;stroke-miterlimit:4;stroke-dasharray:none;stroke-opacity:1" transform="matrix(.85281 0 0 .87717 -111.074 2.472)"/><path d="M246.531 79.063c-.01.144-.031.288-.031.437 0 2.293 1.244 4.156 2.781 4.156.536 0 1.044-.233 1.469-.625-.054.003-.101 0-.156 0-1.969 0-3.635-1.7-4.063-3.969" style="opacity:.4;fill:url(#aQ);fill-opacity:1;stroke:none;stroke-width:2;stroke-miterlimit:4;stroke-dasharray:none;stroke-opacity:1" transform="matrix(.85281 0 0 .87717 -111.074 2.472)"/><path d="M263.875 74.5a11.625 11.625 0 1 1-23.25 0 11.625 11.625 0 1 1 23.25 0" transform="matrix(1.33483 0 0 1.3097 -255.894 -27.093)" style="opacity:1;fill:url(#aR);fill-opacity:1;stroke:none;stroke-width:2;stroke-miterlimit:4;stroke-dasharray:none;stroke-opacity:1"/><path d="M252.188 63.969c-3.047 0-5.784 1.307-7.72 3.375.9-.285 1.85-.469 2.813-.469 6.564 0 11.892 7.01 11.969 15.656 2.154-1.95 3.531-4.767 3.531-7.906 0-5.88-4.739-10.656-10.594-10.656" style="opacity:.6;fill:url(#aS);fill-opacity:1;stroke:none;stroke-width:2;stroke-miterlimit:4;stroke-dasharray:none;stroke-opacity:1" transform="translate(-255.894 -29.255)scale(1.33483)"/><path d="M271.209 66.268c-1.709 0-3.243.71-4.328 1.832a5.4 5.4 0 0 1 1.577-.254c3.68 0 6.669 3.805 6.711 8.5 1.208-1.06 1.98-2.589 1.98-4.293 0-3.192-2.657-5.785-5.94-5.785" style="opacity:.6;fill:url(#aT);fill-opacity:1;stroke:none;stroke-width:2;stroke-miterlimit:4;stroke-dasharray:none;stroke-opacity:1;display:inline" transform="translate(-255.894 -29.255)scale(1.33483)"/><path d="M254.514 74.577a3.182 4.64 0 1 1-6.364 0 3.182 4.64 0 1 1 6.364 0" transform="translate(-258.624 -22.673)scale(1.33483)" style="opacity:1;fill:#000;fill-opacity:1;stroke:none;stroke-width:2;stroke-miterlimit:4;stroke-dasharray:none;stroke-opacity:1"/><path d="M249.281 75.469c-.334 0-.643.109-.937.281.8.272 1.459 1.072 1.812 2.125l1.25-.719c-.483-1.012-1.24-1.687-2.125-1.687" style="opacity:1;fill:url(#aU);fill-opacity:1;stroke:none;stroke-width:2;stroke-miterlimit:4;stroke-dasharray:none;stroke-opacity:1" transform="translate(-255.894 -29.255)scale(1.33483)"/><path d="M246.531 79.063c-.01.144-.031.288-.031.437 0 2.293 1.244 4.156 2.781 4.156.536 0 1.044-.233 1.469-.625-.054.003-.101 0-.156 0-1.969 0-3.635-1.7-4.063-3.969" style="opacity:.4;fill:url(#aV);fill-opacity:1;stroke:none;stroke-width:2;stroke-miterlimit:4;stroke-dasharray:none;stroke-opacity:1" transform="translate(-255.894 -29.255)scale(1.33483)"/><path d="M242.604 70.396a10.2 10.2 0 0 0-.875 4.125c0 5.732 4.733 10.406 10.563 10.406 4.348 0 8.1-2.589 9.719-6.281-2.07 2.14-4.814 3.437-7.844 3.437-5.996 0-10.942-5.123-11.563-11.687" style="opacity:.2;fill:url(#aW);fill-opacity:1;stroke:none;stroke-width:2;stroke-miterlimit:4;stroke-dasharray:none;stroke-opacity:1" transform="translate(-255.894 -29.255)scale(1.33483)"/><path d="M265.225 69.698a8 8 0 0 0-.566 2.97c0 4.13 3.061 7.495 6.834 7.495 2.812 0 5.24-1.864 6.288-4.524-1.34 1.542-3.115 2.476-5.075 2.476-3.88 0-7.08-3.69-7.481-8.417" style="opacity:.2;fill:url(#aX);fill-opacity:1;stroke:none;stroke-width:2;stroke-miterlimit:4;stroke-dasharray:none;stroke-opacity:1;display:inline" transform="translate(-255.894 -29.255)scale(1.33483)"/></g><g style="display:inline"><path d="M245.457 125.097s6.16-4.072 9.774-2.148c2.341 1.245 3.8 2.002 3.88 8.252.078 6.25-2.872 10.287-2.036 15.076.835 4.79.34 13.097-.96 15.089-1.3 1.991-4.406 5.606-7.371 4.368s-8.758-4.54-12.96-12.563c-4.2-8.023-13.056-11.357-11.371-15.584 1.672-4.196 6.629-5.683 6.629-5.683s.943-6.558 5.126-7.865c4.203-1.314 9.115 1.085 9.29 1.058z" style="fill:#d7b03e;fill-opacity:1;fill-rule:evenodd;stroke:#c99f24;stroke-width:.60000002;stroke-linecap:butt;stroke-linejoin:miter;stroke-miterlimit:4;stroke-dasharray:none;stroke-opacity:1" transform="translate(-255.894 -29.255)scale(1.33483)"/><path d="M252.719 125.594c-3.854.557-6.689 3.988-10.5 1.562-4.623-2.06-8.73 1.751-8.875 6.313-1.173 2.324-7.503 3.182-6.5 7.156 5.125 5.02 10.212 10.053 13.437 16.563 2.82 3.187 6.474 7.996 11.063 7.656 7.402-4.447 3.392-14.173 4.125-21.219.72-5.408 4.244-12.553.219-17.219-.88-.649-1.877-.995-2.97-.812" style="fill:url(#aY);fill-opacity:1;fill-rule:evenodd;stroke:none;stroke-width:1px;stroke-linecap:butt;stroke-linejoin:miter;stroke-opacity:1" transform="translate(-255.894 -29.255)scale(1.33483)"/><path d="M251.781 123.719c-2.188 0-4.11 1.385-5.094 3.437-1.436-1.69-3.822-2.812-6.53-2.812-4.392 0-7.97 2.914-7.97 6.5 0 .79.184 1.55.5 2.25-3.22.133-5.78 2.715-5.78 5.875 0 2.517 1.619 4.664 3.905 5.5.3-5.278 4.903-10.493 11.657-12.563 5.394-1.653 10.786-.894 14.375 1.625a7.3 7.3 0 0 0 .719-3.187c0-3.66-2.586-6.625-5.782-6.625" style="opacity:.4;fill:url(#aZ);fill-opacity:1;stroke:none;stroke-width:.40000001;stroke-linecap:round;stroke-linejoin:round;stroke-miterlimit:4;stroke-dasharray:none;stroke-opacity:1" transform="translate(-255.894 -29.255)scale(1.33483)"/></g><g style="display:inline"><path d="M311.027 134.37s7.001 2.345 7.712 6.378c.46 2.611.764 4.227-4.111 8.138s-9.873 4.074-13.132 7.683-10.108 8.334-12.478 8.536c-2.37.203-7.13-.017-7.98-3.116-.852-3.099-1.818-9.696 1.915-17.947s.905-17.28 5.272-18.557c4.336-1.267 8.56 1.722 8.56 1.722s5.748-3.296 9.355-.806c3.623 2.502 4.758 7.849 4.887 7.97z" style="fill:#d7b03e;fill-opacity:1;fill-rule:evenodd;stroke:#c99f24;stroke-width:.60000002;stroke-linecap:butt;stroke-linejoin:miter;stroke-miterlimit:4;stroke-dasharray:none;stroke-opacity:1" transform="matrix(1.14813 0 0 1.12106 -199.955 1.11)"/><path d="M289.75 127.219c-3.81.802-1.685 6.762-2.812 9.375-1.1 8.475-7.206 16.675-3.75 25.312 6.416 4.168 12.801-3.026 17.218-7.062 4.808-4.82 14.047-4.98 16.563-12.125.358-5.89-8.579-4.73-8.688-10.156-1.035-4.42-5.864-6.612-9.656-4.032-2.723 2.18-5.447-2.291-8.875-1.312" style="fill:url(#ba);fill-opacity:1;fill-rule:evenodd;stroke:none;stroke-width:.60000002;stroke-linecap:butt;stroke-linejoin:miter;stroke-miterlimit:4;stroke-dasharray:none;stroke-opacity:1" transform="matrix(1.14813 0 0 1.12106 -199.955 1.11)"/><path d="M301.563 126.813a7.07 7.07 0 0 0-4.75 2 7.8 7.8 0 0 0-2.657-1.47c-3.409-1.112-6.912.21-7.812 2.97-.292.893-.27 1.824 0 2.718 4.057-.843 8.936-.271 13.562 1.906 5.977 2.814 9.982 7.59 10.969 12.313 3.106.15 5.755-1.16 6.531-3.469 1.018-3.03-1.588-6.664-5.844-8.094a11 11 0 0 0-3.187-.562c.54-2.504-.28-5.17-2.375-6.844a6.77 6.77 0 0 0-4.437-1.469" style="opacity:.4;fill:url(#bb);fill-opacity:1;stroke:none;stroke-width:.60000002;stroke-linecap:round;stroke-linejoin:round;stroke-miterlimit:4;stroke-dasharray:none;stroke-opacity:1" transform="matrix(1.14813 0 0 1.12106 -199.955 1.11)"/></g><path d="M263.506 160.052c-2.941 0-5.334 1.072-5.53 2.437h-.032v1.375c-.013.061-.031.125-.031.188 0 1.449 2.492 2.625 5.562 2.625s5.563-1.176 5.563-2.625v-1.188c.012-.06.03-.125.03-.187 0-.09-.011-.193-.03-.281v-.063h-.032c-.35-1.29-2.67-2.281-5.5-2.281" style="opacity:1;fill:url(#bc);fill-opacity:1;stroke:#7f6604;stroke-width:.33399999;stroke-linecap:round;stroke-linejoin:round;stroke-miterlimit:4;stroke-dasharray:none;stroke-opacity:1" transform="translate(-287.342 -29.293)scale(1.33483)"/><path d="M258.116 162.612s2.541 1.9 5.414 1.9 5.347-1.944 5.347-1.944l-.044 1.878s-1.569 2.165-4.927 2.099c-3.36-.066-5.569-1.215-5.746-2.055s0-1.834-.044-1.878" style="opacity:.3;fill:url(#bd);fill-opacity:1;stroke:none;stroke-width:.33399999;stroke-linecap:round;stroke-linejoin:round;stroke-miterlimit:4;stroke-dasharray:none;stroke-opacity:1" transform="translate(-287.342 -29.293)scale(1.33483)"/><path d="M267.22 162.822a3.8 1.27 0 1 1-7.601 0 3.8 1.27 0 1 1 7.601 0" transform="matrix(1.3348 0 0 1.5902 -287.225 -71.844)" style="opacity:1;fill:#adadad;fill-opacity:1;stroke:none;stroke-width:.33399999;stroke-linecap:round;stroke-linejoin:round;stroke-miterlimit:4;stroke-dasharray:none;stroke-opacity:1"/><path d="M260.282 160.733s3.624.553 4.375 1.37.486 2.232.486 2.232.685.509.663 1.105c-.022.597-.31.928-.31.928s1.57-.453 1.79-.53c0 0-.524-.437-.613-.856-.088-.42.895-1.613.895-1.613s-2.8-1.398-3.022-2.039c-.22-.64.2-1.06.2-1.06s-1.769-.067-2.431.022c-.663.088-2.011.486-2.033.441" style="opacity:.3;fill:url(#be);fill-opacity:1;stroke:none;stroke-width:.33399999;stroke-linecap:round;stroke-linejoin:round;stroke-miterlimit:4;stroke-dasharray:none;stroke-opacity:1" transform="translate(-287.342 -29.293)scale(1.33483)"/><path d="M263.506 160.052c-2.941 0-5.334 1.072-5.53 2.437h-.032v1.375c-.013.061-.031.125-.031.188 0 1.449 2.492 2.625 5.562 2.625s5.563-1.176 5.563-2.625v-1.188c.012-.06.03-.125.03-.187 0-.09-.011-.193-.03-.281v-.063h-.032c-.35-1.29-2.67-2.281-5.5-2.281" style="opacity:1;fill:url(#bf);fill-opacity:1;stroke:#7f6604;stroke-width:.33399999;stroke-linecap:round;stroke-linejoin:round;stroke-miterlimit:4;stroke-dasharray:none;stroke-opacity:1" transform="translate(-245.605 -32.133)scale(1.33483)"/><path d="M258.116 162.612s2.541 1.9 5.414 1.9 5.347-1.944 5.347-1.944l-.044 1.878s-1.569 2.165-4.927 2.099c-3.36-.066-5.569-1.215-5.746-2.055s0-1.834-.044-1.878" style="opacity:.3;fill:url(#bg);fill-opacity:1;stroke:none;stroke-width:.33399999;stroke-linecap:round;stroke-linejoin:round;stroke-miterlimit:4;stroke-dasharray:none;stroke-opacity:1" transform="translate(-245.605 -32.133)scale(1.33483)"/><path d="M267.22 162.822a3.8 1.27 0 1 1-7.601 0 3.8 1.27 0 1 1 7.601 0" transform="matrix(1.3348 0 0 1.5902 -245.487 -74.685)" style="opacity:1;fill:#adadad;fill-opacity:1;stroke:none;stroke-width:.33399999;stroke-linecap:round;stroke-linejoin:round;stroke-miterlimit:4;stroke-dasharray:none;stroke-opacity:1"/><path d="M260.282 160.733s3.624.553 4.375 1.37.486 2.232.486 2.232.685.509.663 1.105c-.022.597-.31.928-.31.928s1.57-.453 1.79-.53c0 0-.524-.437-.613-.856-.088-.42.895-1.613.895-1.613s-2.8-1.398-3.022-2.039c-.22-.64.2-1.06.2-1.06s-1.769-.067-2.431.022c-.663.088-2.011.486-2.033.441" style="opacity:.3;fill:url(#bh);fill-opacity:1;stroke:none;stroke-width:.33399999;stroke-linecap:round;stroke-linejoin:round;stroke-miterlimit:4;stroke-dasharray:none;stroke-opacity:1" transform="translate(-245.605 -32.133)scale(1.33483)"/><path d="M263.506 160.052c-2.941 0-5.334 1.072-5.53 2.437h-.032v1.375c-.013.061-.031.125-.031.188 0 1.449 2.492 2.625 5.562 2.625s5.563-1.176 5.563-2.625v-1.188c.012-.06.03-.125.03-.187 0-.09-.011-.193-.03-.281v-.063h-.032c-.35-1.29-2.67-2.281-5.5-2.281" style="opacity:1;fill:url(#bi);fill-opacity:1;stroke:#7f6604;stroke-width:.33399999;stroke-linecap:round;stroke-linejoin:round;stroke-miterlimit:4;stroke-dasharray:none;stroke-opacity:1" transform="translate(-182.207 -42.6)scale(1.33483)"/><path d="M258.116 162.612s2.541 1.9 5.414 1.9 5.347-1.944 5.347-1.944l-.044 1.878s-1.569 2.165-4.927 2.099c-3.36-.066-5.569-1.215-5.746-2.055s0-1.834-.044-1.878" style="opacity:.3;fill:url(#bj);fill-opacity:1;stroke:none;stroke-width:.33399999;stroke-linecap:round;stroke-linejoin:round;stroke-miterlimit:4;stroke-dasharray:none;stroke-opacity:1" transform="translate(-182.207 -42.6)scale(1.33483)"/><path d="M267.22 162.822a3.8 1.27 0 1 1-7.601 0 3.8 1.27 0 1 1 7.601 0" transform="matrix(1.3348 0 0 1.5902 -182.09 -85.151)" style="opacity:1;fill:#adadad;fill-opacity:1;stroke:none;stroke-width:.33399999;stroke-linecap:round;stroke-linejoin:round;stroke-miterlimit:4;stroke-dasharray:none;stroke-opacity:1"/><path d="M260.282 160.733s3.624.553 4.375 1.37.486 2.232.486 2.232.685.509.663 1.105c-.022.597-.31.928-.31.928s1.57-.453 1.79-.53c0 0-.524-.437-.613-.856-.088-.42.895-1.613.895-1.613s-2.8-1.398-3.022-2.039c-.22-.64.2-1.06.2-1.06s-1.769-.067-2.431.022c-.663.088-2.011.486-2.033.441" style="opacity:.3;fill:url(#bk);fill-opacity:1;stroke:none;stroke-width:.33399999;stroke-linecap:round;stroke-linejoin:round;stroke-miterlimit:4;stroke-dasharray:none;stroke-opacity:1" transform="translate(-182.207 -42.6)scale(1.33483)"/><path d="M263.506 160.052c-2.941 0-5.334 1.072-5.53 2.437h-.032v1.375c-.013.061-.031.125-.031.188 0 1.449 2.492 2.625 5.562 2.625s5.563-1.176 5.563-2.625v-1.188c.012-.06.03-.125.03-.187 0-.09-.011-.193-.03-.281v-.063h-.032c-.35-1.29-2.67-2.281-5.5-2.281" style="opacity:1;fill:url(#bl);fill-opacity:1;stroke:#7f6604;stroke-width:.33399999;stroke-linecap:round;stroke-linejoin:round;stroke-miterlimit:4;stroke-dasharray:none;stroke-opacity:1" transform="translate(-180.556 -46.848)scale(1.33483)"/><path d="M258.116 162.612s2.541 1.9 5.414 1.9 5.347-1.944 5.347-1.944l-.044 1.878s-1.569 2.165-4.927 2.099c-3.36-.066-5.569-1.215-5.746-2.055s0-1.834-.044-1.878" style="opacity:.3;fill:url(#bm);fill-opacity:1;stroke:none;stroke-width:.33399999;stroke-linecap:round;stroke-linejoin:round;stroke-miterlimit:4;stroke-dasharray:none;stroke-opacity:1" transform="translate(-180.556 -46.848)scale(1.33483)"/><path d="M267.22 162.822a3.8 1.27 0 1 1-7.601 0 3.8 1.27 0 1 1 7.601 0" transform="matrix(1.3348 0 0 1.5902 -180.439 -89.4)" style="opacity:1;fill:#adadad;fill-opacity:1;stroke:none;stroke-width:.33399999;stroke-linecap:round;stroke-linejoin:round;stroke-miterlimit:4;stroke-dasharray:none;stroke-opacity:1"/><path d="M260.282 160.733s3.624.553 4.375 1.37.486 2.232.486 2.232.685.509.663 1.105c-.022.597-.31.928-.31.928s1.57-.453 1.79-.53c0 0-.524-.437-.613-.856-.088-.42.895-1.613.895-1.613s-2.8-1.398-3.022-2.039c-.22-.64.2-1.06.2-1.06s-1.769-.067-2.431.022c-.663.088-2.011.486-2.033.441" style="opacity:.3;fill:url(#bn);fill-opacity:1;stroke:none;stroke-width:.33399999;stroke-linecap:round;stroke-linejoin:round;stroke-miterlimit:4;stroke-dasharray:none;stroke-opacity:1" transform="translate(-180.556 -46.848)scale(1.33483)"/><path d="M263.506 160.052c-2.941 0-5.334 1.072-5.53 2.437h-.032v1.375c-.013.061-.031.125-.031.188 0 1.449 2.492 2.625 5.562 2.625s5.563-1.176 5.563-2.625v-1.188c.012-.06.03-.125.03-.187 0-.09-.011-.193-.03-.281v-.063h-.032c-.35-1.29-2.67-2.281-5.5-2.281" style="opacity:1;fill:url(#bo);fill-opacity:1;stroke:#7f6604;stroke-width:.33399999;stroke-linecap:round;stroke-linejoin:round;stroke-miterlimit:4;stroke-dasharray:none;stroke-opacity:1" transform="translate(-181.735 -51.33)scale(1.33483)"/><path d="M258.116 162.612s2.541 1.9 5.414 1.9 5.347-1.944 5.347-1.944l-.044 1.878s-1.569 2.165-4.927 2.099c-3.36-.066-5.569-1.215-5.746-2.055s0-1.834-.044-1.878" style="opacity:.3;fill:url(#bp);fill-opacity:1;stroke:none;stroke-width:.33399999;stroke-linecap:round;stroke-linejoin:round;stroke-miterlimit:4;stroke-dasharray:none;stroke-opacity:1" transform="translate(-181.735 -51.33)scale(1.33483)"/><path d="M267.22 162.822a3.8 1.27 0 1 1-7.601 0 3.8 1.27 0 1 1 7.601 0" transform="matrix(1.3348 0 0 1.5902 -181.617 -93.882)" style="opacity:1;fill:#adadad;fill-opacity:1;stroke:none;stroke-width:.33399999;stroke-linecap:round;stroke-linejoin:round;stroke-miterlimit:4;stroke-dasharray:none;stroke-opacity:1"/><path d="M260.282 160.733s3.624.553 4.375 1.37.486 2.232.486 2.232.685.509.663 1.105c-.022.597-.31.928-.31.928s1.57-.453 1.79-.53c0 0-.524-.437-.613-.856-.088-.42.895-1.613.895-1.613s-2.8-1.398-3.022-2.039c-.22-.64.2-1.06.2-1.06s-1.769-.067-2.431.022c-.663.088-2.011.486-2.033.441" style="opacity:.3;fill:url(#bq);fill-opacity:1;stroke:none;stroke-width:.33399999;stroke-linecap:round;stroke-linejoin:round;stroke-miterlimit:4;stroke-dasharray:none;stroke-opacity:1" transform="translate(-181.735 -51.33)scale(1.33483)"/><path d="M263.506 160.052c-2.941 0-5.334 1.072-5.53 2.437h-.032v1.375c-.013.061-.031.125-.031.188 0 1.449 2.492 2.625 5.562 2.625s5.563-1.176 5.563-2.625v-1.188c.012-.06.03-.125.03-.187 0-.09-.011-.193-.03-.281v-.063h-.032c-.35-1.29-2.67-2.281-5.5-2.281" style="opacity:1;fill:url(#br);fill-opacity:1;stroke:#7f6604;stroke-width:.33399999;stroke-linecap:round;stroke-linejoin:round;stroke-miterlimit:4;stroke-dasharray:none;stroke-opacity:1" transform="translate(-182.915 -55.342)scale(1.33483)"/><path d="M258.116 162.612s2.541 1.9 5.414 1.9 5.347-1.944 5.347-1.944l-.044 1.878s-1.569 2.165-4.927 2.099c-3.36-.066-5.569-1.215-5.746-2.055s0-1.834-.044-1.878" style="opacity:.3;fill:url(#bs);fill-opacity:1;stroke:none;stroke-width:.33399999;stroke-linecap:round;stroke-linejoin:round;stroke-miterlimit:4;stroke-dasharray:none;stroke-opacity:1" transform="translate(-182.915 -55.342)scale(1.33483)"/><path d="M267.22 162.822a3.8 1.27 0 1 1-7.601 0 3.8 1.27 0 1 1 7.601 0" transform="matrix(1.3348 0 0 1.5902 -182.797 -97.893)" style="opacity:1;fill:#adadad;fill-opacity:1;stroke:none;stroke-width:.33399999;stroke-linecap:round;stroke-linejoin:round;stroke-miterlimit:4;stroke-dasharray:none;stroke-opacity:1"/><path d="M260.282 160.733s3.624.553 4.375 1.37.486 2.232.486 2.232.685.509.663 1.105c-.022.597-.31.928-.31.928s1.57-.453 1.79-.53c0 0-.524-.437-.613-.856-.088-.42.895-1.613.895-1.613s-2.8-1.398-3.022-2.039c-.22-.64.2-1.06.2-1.06s-1.769-.067-2.431.022c-.663.088-2.011.486-2.033.441" style="opacity:.3;fill:url(#bt);fill-opacity:1;stroke:none;stroke-width:.33399999;stroke-linecap:round;stroke-linejoin:round;stroke-miterlimit:4;stroke-dasharray:none;stroke-opacity:1" transform="translate(-182.915 -55.342)scale(1.33483)"/><path d="m314.265 151.21-.619.663s2.121 1.812 5.392 1.679c3.27-.133 2.74-.31 2.74-.31s-4.464 1.415-7.513-2.032" style="opacity:.4;fill:url(#bu);fill-opacity:1;stroke:none;stroke-width:.33399999;stroke-linecap:round;stroke-linejoin:round;stroke-miterlimit:4;stroke-dasharray:none;stroke-opacity:1" transform="translate(-255.894 -29.255)scale(1.33483)"/><path d="M314.969 146.844s-.688.281-.938.719-.25.75-.25.75l-.281-.782.188-1.344z" style="opacity:.4;fill:url(#bv);fill-opacity:1;stroke:none;stroke-width:.33399999;stroke-linecap:round;stroke-linejoin:round;stroke-miterlimit:4;stroke-dasharray:none;stroke-opacity:1" transform="translate(-255.894 -29.255)scale(1.33483)"/><g style="display:inline"><path d="M245.875 84.5c-1.479-2.892-3.077-5.834-3.622-9.071-.086-2.06 1.006-3.95 1.985-5.692 1.007-1.51 2.189-3.345 4.133-3.623 3.341.45 6.571 1.562 9.706 2.776 1.366.65 3.001 1.158 3.86 2.485q.83 2.1 1.688 4.188c-.079-2.138-.069-4.628 1.513-6.263 1.565-1.05 3.548-1.141 5.361-1.453a64 64 0 0 1 4.563-.41l-4.5-2.062-11.062 1.688c-1.594-1.057-3.15-2.181-4.812-3.126-3.337-.523-6.708-.807-10.063-1.187-1.252 1.499-2.746 2.905-3.334 4.823-1.226 3.102-.504 5.283-.654 8.696-.03.687-.153.303.081 2.329 1.657 3.03 2.876 3.872 5.157 5.902" style="fill:#000;fill-opacity:.14236109;fill-rule:evenodd;stroke:none;stroke-width:1px;stroke-linecap:butt;stroke-linejoin:miter;stroke-opacity:1" transform="translate(-255.894 -29.255)scale(1.33483)"/><path d="M247.438 62.563s15.5 2.687 17.75.124 2.312-3.374 2.312-3.374l3.875 4.812-2.625 1.688-6.562 1.75-10.813-4z" style="opacity:.38566553;fill:#000;fill-opacity:1;fill-rule:evenodd;stroke:none;stroke-width:1px;stroke-linecap:butt;stroke-linejoin:miter;stroke-opacity:1" transform="translate(-255.894 -29.255)scale(1.33483)"/><path d="M245.75 84.563s-11.5-17.688 3.563-19.876c3.542-.514 11.937 3.813 13.125 5.126 1.187 1.312 7-4.813 10.25-3.438 1.957.828 1.875.438 1.875.438s1.687-1.188.562-2.25-3.062-1.5-4.437-1.126c-1.375.376-4.299 2.509-6.938 2.938-1.67.272-15.298-7.216-20.125-4.375-9.174 5.4-1.5 21.063-1.687 21.938-.188.874-.25 1.5-.25 1.5z" style="fill:url(#bw);fill-opacity:1;fill-rule:evenodd;stroke:none;stroke-width:1px;stroke-linecap:butt;stroke-linejoin:miter;stroke-opacity:1" transform="translate(-255.894 -29.255)scale(1.33483)"/><path d="M252.26 63.661s-4.604-2.085-7.866-.53c-4.069 1.938-3.742 5.815-4.588 8.109-.309.84-.147-6.285 3.88-8.684 3.288-1.958 8.398 1.238 8.574 1.105" style="opacity:.4;fill:url(#bx);fill-opacity:1;fill-rule:evenodd;stroke:none;stroke-width:1px;stroke-linecap:butt;stroke-linejoin:miter;stroke-opacity:1" transform="translate(-255.894 -29.255)scale(1.33483)"/><path d="m240.563 75.313 2.75 10.312 1.187.063z" style="opacity:.4;fill:url(#by);fill-opacity:1;fill-rule:evenodd;stroke:none;stroke-width:1px;stroke-linecap:butt;stroke-linejoin:miter;stroke-opacity:1" transform="translate(-255.894 -29.255)scale(1.33483)"/></g><g style="display:inline"><path d="M276.723 80.605s5.014-5.867 7.307-7.466c2.293-1.598 8.09-4.25 8.09-4.25l2.947 3.738s-3.85 3.754-6.763 5.499c-2.914 1.745-10.468 5.062-10.468 5.062z" style="fill:url(#bz);fill-opacity:1;fill-rule:evenodd;stroke:none;stroke-width:1px;stroke-linecap:butt;stroke-linejoin:miter;stroke-opacity:1" transform="translate(-255.894 -29.255)scale(1.33483)"/><path d="M281.281 75.563a89 89 0 0 0-3 3.218c.185 1.047 1.403 2.277 2.344 3.094 1.13-.513 1.885-.877 3.313-1.562-.817-.517-1.726-1.16-2.125-1.626-.504-.587-.551-2.135-.532-3.124m4.938-3.813c-.856.469-1.62.917-2.188 1.313-.307.213-.676.5-1.062.843-.002.01.001.022 0 .031a5.2 5.2 0 0 0 .062 1.72c.257 1.241 2.294 2.67 3.469 3.406a35 35 0 0 0 1.813-1A22 22 0 0 0 290 76.906c-1.05-.476-2.297-1.076-2.875-1.594-.7-.626-.867-2.59-.906-3.562m5.562-2.781c-.29.133-1.57.748-3.312 1.625a5 5 0 0 0 .062 1.625c.244 1.18 2.085 2.484 3.281 3.25a66 66 0 0 0 2.782-2.438c-.794-.393-1.582-.81-1.969-1.156-.573-.513-.763-1.876-.844-2.906" style="opacity:.1;fill:#000;fill-opacity:1;fill-rule:evenodd;stroke:none;stroke-width:1px;stroke-linecap:butt;stroke-linejoin:miter;stroke-opacity:1" transform="translate(-255.894 -29.255)scale(1.33483)"/><path d="m291.297 69.219.594.14-.297.329.437-.157-.312.797.422-.14-.204.374.641-.187v.36l.188-.126s.375.235.265.422c-.11.188-.469.5-.469.5s.438-.39.594-.328c.156.063.438.453.438.453l-.219.219s.344-.281.469-.172.578.39.437.5-.312.313-.312.313.39-.25.484-.188c.094.063.235.344.235.344l-.141.125.25-.078.094.125s.453-.11-.11-.735c-.562-.625-2.765-3.203-2.765-3.203z" style="opacity:.2;fill:#000;fill-opacity:1;stroke:none;stroke-width:.60000002;stroke-linecap:round;stroke-linejoin:round;stroke-miterlimit:4;stroke-dasharray:none;stroke-opacity:1" transform="translate(-255.894 -29.255)scale(1.33483)"/><path d="M291.969 70.469c-1.278-.09-3.654.724-6.125 2.187-3.295 1.951-5.509 4.317-4.938 5.281a.74.74 0 0 0 .313.282c.589-1.295 3.016-3.258 6.281-4.938 1.956-1.006 3.845-1.738 5.406-2.125-.008-.106-.012-.195-.062-.281-.143-.241-.45-.376-.875-.406" style="opacity:.4;fill:url(#bA);fill-opacity:1;stroke:none;stroke-width:.60000002;stroke-linecap:round;stroke-linejoin:round;stroke-miterlimit:4;stroke-dasharray:none;stroke-opacity:1" transform="translate(-255.894 -29.255)scale(1.33483)"/><path d="M293.449 74.207s-8.363 5.51-10.442 6.28a233 233 0 0 1-3.613 1.303l-1.316-2.597 1.34-1.031s-.473 2.142 3.756.917c4.23-1.225 10.32-4.87 10.275-4.872" style="opacity:.1;fill:url(#bB);fill-opacity:1;fill-rule:evenodd;stroke:none;stroke-width:1px;stroke-linecap:butt;stroke-linejoin:miter;stroke-opacity:1" transform="translate(-255.894 -29.255)scale(1.33483)"/><path d="M291.695 69.203c.31.07.678.477.478.781-.131.43.471-.08.294.172.168.376.533.545.761.902.189.418.703.596.986.868.097.325.573.358.61.78-.073.273.188.217.4-.18.1-.415.538-.142.83-.372.445-.008.51-.758.928-.438-.107-.275.13-.526-.11-.895-.084-.432-.174-1.217-.716-1.278-.432-.289-.992-.33-1.025-.855-.338-.333-.03-.138-.38-.415-.249-.38-.32-.157-.409-.638-.429-.066-.349-.16-.717-.084-.284.398-.474.313-.725.735-.174.38-1.104.152-1.095.636-.036.094-.105.175-.11.281" style="fill:url(#bC);fill-opacity:1;fill-rule:evenodd;stroke:none;stroke-width:1px;stroke-linecap:butt;stroke-linejoin:miter;stroke-opacity:1" transform="translate(-255.894 -29.255)scale(1.33483)"/><path d="M295.25 71.861c-.003-.255-.23-.429-.403-.585-.342-.228-.805-.207-1.113-.495-.185-.217-.043-.672.278-.633.297.045.073.457.34.58.227.212.517.321.801.433.174.174.434.302.525.541.023.165-.192.25-.327.222m-.913-1.643c.09.166.422.473.523.163-.177-.042-.35-.12-.524-.163m.203-1c-.242.272-.495-.307-.215-.406.172-.004.283.268.215.406m1.28.656c.194.326.576.561.6.97.033.138.324.43.087.47a.9.9 0 0 1-.38-.827c-.1-.203-.397-.35-.306-.612m-3.483-.984c.306.135.456.453.632.717.06.307-.304-.005-.336-.14-.217-.195-.188-.58-.488-.664.002-.025.083.015.098.009m1.265-1.172c.248.123.565.277.586.591.011.16.404.503.062.503-.324-.128-.403-.501-.577-.765-.092-.084-.295-.253-.07-.329m-.28 1c.34.103-.22.373-.149.016.032-.049.106-.05.148-.016" style="opacity:.2;fill:#000;fill-opacity:1;fill-rule:evenodd;stroke:none;stroke-width:1px;stroke-linecap:butt;stroke-linejoin:miter;stroke-opacity:1" transform="translate(-255.894 -29.255)scale(1.33483)"/><path d="m294.586 71.57.742.797c-.149.257-.244-.143-.357-.24zm1.156-.57c.182.07.48.138.422.396.01.094.07.393-.05.164zm-.32-.68c-.206-.241-.558-.268-.775-.494-.01-.18.322.182.42.238.11.07.243.11.324.217m-.086-.773c.13.167.517.36.416.568-.206-.082-.305-.348-.47-.486-.015-.037-.016-.149.054-.082m-2.297-.43c.193.17.339.39.45.618.046.139.38.295.258.412-.265-.104-.28-.433-.484-.608-.083-.125-.217-.281-.224-.422m.102 1.258c.173.209.328.438.55.6.104.117.314.367.3.44-.278-.091-.425-.368-.544-.614-.13-.157-.262-.348-.385-.465m1.524 1.445c.136.241.206.536.454.691.13.182-.018.16-.081.014a3 3 0 0 1-.362-.733l.004-.026m1.094-.313c.18.142.308.34.48.491.152.122-.044.264-.108.075-.112-.223-.336-.458-.463-.613a.12.12 0 0 1 .091.047m-2.374-3.359c.192.088.383.23.447.441.058.137.078.289.143.423.066.113.167.205.206.333.08.136.219.23.287.374-.048.005-.114-.088-.168-.118-.122-.114-.205-.26-.318-.382-.118-.14-.242-.276-.356-.42a1.3 1.3 0 0 0-.232-.301c-.058-.073-.084-.165-.115-.25-.01-.062.043-.11.09-.14m1.632.79q.134.163.275.322c.103.131.217.26.365.34a.5.5 0 0 1 .19.136c.038.038.082.073.106.122.005.049-.051.066-.09.053-.081-.018-.14-.085-.195-.143-.09-.103-.162-.221-.259-.318a1 1 0 0 0-.212-.2c-.071-.06-.17-.11-.19-.209a.15.15 0 0 1 .01-.103m1.304 1.054q.12.146.276.25c.142.115.24.272.358.41.022.045-.034.056-.066.047a.3.3 0 0 1-.192-.079c-.09-.084-.137-.2-.205-.301-.048-.074-.122-.128-.163-.206-.012-.018-.008-.038-.007-.058m-2.641-.758c.036-.013.093.094.133.13.168.213.334.428.487.651.146.213.23.469.418.652.087.047.185.082.246.165.053.077.16.088.214.156-.023.065-.127.04-.18.02-.204-.096-.361-.265-.511-.428-.05-.075-.067-.168-.134-.233-.08-.117-.139-.246-.22-.362a1 1 0 0 1-.17-.398c-.015-.113-.114-.174-.194-.24l-.128-.12m1.852 1.476c.02.026.055.056.08.084.059.06.12.12.17.19.02.022.031.071-.012.075a.36.36 0 0 1-.193-.044.6.6 0 0 1-.22-.172c-.027-.036-.031-.082-.043-.123-.01-.028-.014-.085.031-.074.045.006.07.047.105.071.028.022.062 0 .088-.006.004.015 0 .03.002.046m-2.907-1.141c.075.001.123.068.18.108.122.107.233.226.355.331.069.072.107.165.154.25.045.055.128.067.159.136.048.085.053.2.14.258.038.028.107.082.113.109-.135-.084-.24-.207-.35-.32-.054-.069-.086-.155-.158-.21-.073-.062-.149-.12-.212-.193-.087-.088-.167-.184-.262-.263-.06-.056-.083-.136-.119-.206" style="opacity:.2;fill:#000;fill-opacity:1;stroke:none;stroke-width:.60000002;stroke-linecap:round;stroke-linejoin:round;stroke-miterlimit:4;stroke-dasharray:none;stroke-opacity:1" transform="translate(-255.894 -29.255)scale(1.33483)"/></g><g style="display:inline"><path d="M276.214 94.818s-7.602-.442-9.723-.089c-2.121.354-14.938 3.006-17.501 2.299-2.563-.708-8.397-5.657-8.397-5.657l8.132.884 20.771-.177 2.563-.796s.177 1.503 1.238 2.21 3.005 1.414 2.917 1.326" style="opacity:.15;fill:#000;fill-opacity:1;fill-rule:evenodd;stroke:none;stroke-width:1px;stroke-linecap:butt;stroke-linejoin:miter;stroke-opacity:1" transform="translate(-255.894 -29.255)scale(1.33483)"/><path d="M265.165 77.052s-1.503.619-2.917 2.563-5.22 5.573-7.518 6.015-12.546-2.391-13.43-1.154-3.27 4.685-.619 7.071c2.652 2.387 22.363 3.448 26.075 2.387s13.965-5.922 13.965-5.922 5.746.707 6.895 1.945 3.624 2.828 3.005.795-3.359-4.685-7.071-6.718c-3.712-2.032-5.331-6.94-5.331-6.94l-.688-.875s-1.562 2.375-2.969 3.25-4.406 1.219-5.812.781c-1.406-.437-3.531-3.187-3.585-3.198" style="fill:#d7b03e;fill-opacity:1;fill-rule:evenodd;stroke:none;stroke-width:1px;stroke-linecap:butt;stroke-linejoin:miter;stroke-opacity:1" transform="translate(-255.894 -29.255)scale(1.33483)"/><path d="m263.618 79.792 4.596 6.054-4.86-1.502s-2.299 3.668-4.995 3.977c-2.696.31-14.982-3.314-14.982-3.314l.133-.619 6.938.972s4.287.663 4.862.442c.574-.22 6.452-4.861 6.85-5.48s1.502-.574 1.458-.53" style="opacity:1;fill:url(#bD);fill-opacity:1;fill-rule:evenodd;stroke:none;stroke-width:1px;stroke-linecap:butt;stroke-linejoin:miter;stroke-opacity:1" transform="translate(-255.894 -29.255)scale(1.33483)"/><path d="m266.938 79.5 2.625 4.5-1.375-4.062s-1.063-.25-1.25-.438" style="fill:url(#bE);fill-opacity:1;fill-rule:evenodd;stroke:none;stroke-width:1px;stroke-linecap:butt;stroke-linejoin:miter;stroke-opacity:1" transform="translate(-255.894 -29.255)scale(1.33483)"/><path d="M264.813 83.344a.938 1.594 0 1 1-1.875 0 .938 1.594 0 1 1 1.875 0" transform="matrix(.28264 -.31394 .99202 .89313 -57.888 91.46)" style="opacity:1;fill:#a2550d;fill-opacity:1;stroke:none;stroke-width:1;stroke-miterlimit:4;stroke-dasharray:none;stroke-opacity:1"/><path d="M264.813 83.344a.938 1.594 0 1 1-1.875 0 .938 1.594 0 1 1 1.875 0" transform="matrix(.29433 -.07897 .26454 .87732 3.424 29.065)" style="opacity:1;fill:#a2550d;fill-opacity:1;stroke:none;stroke-width:1;stroke-miterlimit:4;stroke-dasharray:none;stroke-opacity:1"/><path d="M242.45 85.272s-1.637.353-1.575 1.978 1.188 4.125 2.375 4.188 8.938 1.874 10.5 1.937c1.563.063 12.094 0 14.031-.531s6.625-2.344 6.625-2.344l-4.156 1.281s-2.375.906-4.719.938-5.187.437-6.281.375c-1.094-.063-6.187-.094-6.969-.25-.781-.156-7.562-2.969-8.125-2.844s-1.937.375-2.125-.156-1.25-1.5-.625-2.063c.625-.562 2.563-1.437 2.906-.875.344.563 2.375 2.281 3.063 2.531s6.563 1.876 11.938 1.5c5.375-.374 20.812-4.062 22.125-3.937s7.187 2.625 7.5 2 2.062 2 1.625 2.188c-.438.187-1.375-.563-2.375-1.25s-6.75-2.25-7.438-2-9.375 4.187-9.375 4.187-4.312 1.938-4.812 1.938-12.25.562-16.563-.25-8.312-1.126-9.25-2.126c-.937-1-1.437-2.812-1.125-4 .313-1.187 1.125-3 1.875-3.124.75-.126 1.688.374.95.709" style="fill:url(#bF);fill-opacity:1;fill-rule:evenodd;stroke:none;stroke-width:1px;stroke-linecap:butt;stroke-linejoin:miter;stroke-opacity:1" transform="translate(-255.894 -29.255)scale(1.33483)"/><path d="M244.438 88.5s-1.313-1.562-2.063-.562.063 2.062.813 1.874 1.25-1.374 1.25-1.312" style="fill:#c29028;fill-opacity:1;fill-rule:evenodd;stroke:none;stroke-width:1px;stroke-linecap:butt;stroke-linejoin:miter;stroke-opacity:1;filter:url(#bG)" transform="translate(-255.894 -29.255)scale(1.33483)"/><path d="M264.896 78.752c-3.54 4.661-8.904 9.856-15.344 7.281-2.751-.156-7.862-2.772-7.906 1.75.85 3.002 5.93 2.06 8.53 2.781a57 57 0 0 1 6.063-3.375c8.429-4.071 17.122-5.92 23.25-5.343-.893-1.11-1.662-2.22-2.343-2.813-3.278 3.144-9.4 3.23-12.25-.281" style="opacity:.39590448;fill:url(#bH);fill-opacity:1;fill-rule:evenodd;stroke:none;stroke-width:1px;stroke-linecap:butt;stroke-linejoin:miter;stroke-opacity:1" transform="translate(-255.894 -29.255)scale(1.33483)"/><path d="M280.75 87.974s-2.382.798-5.22 1.609c-.21.06-1.118.28-2.468.562s-3.16.615-5.187.938c-4.053.645-9.011 1.21-13.094.969-1.67-.099-4.552-.938-7-1.75s-4.469-1.594-4.469-1.594a.2.2 0 0 0-.031-.031.2.2 0 0 0-.063 0 .5.5 0 0 0-.14.02c-.03.038-.012.006.195.25 0 0 1.924.914 4.383 1.73s5.322 1.645 7.094 1.75c4.137.244 9.12-.29 13.187-.938 2.034-.324 3.832-.686 5.188-.969s2.247-.49 2.5-.562a40 40 0 0 0 5.152-1.882c.023-.007.11-.074.035-.102-.01-.004-.02-.001-.031 0z" style="opacity:.76791813;fill:url(#bI);fill-opacity:1;fill-rule:evenodd;stroke:none;stroke-width:.40000001;stroke-linecap:round;stroke-linejoin:round;stroke-miterlimit:4;stroke-dasharray:none;stroke-opacity:1;display:inline;filter:url(#bJ)" transform="translate(-255.894 -29.255)scale(1.33483)"/><path d="M280.843 87.958s-2.475.533-5.312 1.344c-.212.06-1.119.28-2.469.562s-3.16.615-5.187.938c-4.053.645-9.011 1.21-13.094.968-1.67-.098-4.552-.937-7-1.75s-4.469-1.593-4.469-1.593a.2.2 0 0 0-.031-.032.2.2 0 0 0-.063 0 .2.2 0 0 0-.093.032.2.2 0 0 0-.032.031.2.2 0 0 0-.03.031.2.2 0 0 0-.032.125.2.2 0 0 0 .031.094.2.2 0 0 0 .031.031.2.2 0 0 0 .032.031.2.2 0 0 0 .03.032s2.042.777 4.5 1.593c2.46.817 5.323 1.646 7.095 1.75 4.137.245 9.12-.29 13.187-.937 2.034-.324 3.832-.686 5.188-.969s2.247-.49 2.5-.562a140 140 0 0 0 5.246-1.617c.022-.006.11-.073.035-.102-.01-.004-.02 0-.031 0z" style="opacity:1;fill:#92772a;fill-opacity:1;fill-rule:evenodd;stroke:none;stroke-width:.40000001;stroke-linecap:round;stroke-linejoin:round;stroke-miterlimit:4;stroke-dasharray:none;stroke-opacity:1;display:inline" transform="translate(-255.894 -29.255)scale(1.33483)"/></g><g style="display:inline"><path d="M273.12 69.716a28.373 14.85 0 1 1-56.745 0 28.373 14.85 0 1 1 56.745 0" transform="matrix(.7162 -.46049 .50406 .71475 -145.342 121.37)" style="fill:#000;fill-opacity:.10763891;stroke:none;stroke-width:2;stroke-miterlimit:4;stroke-dasharray:none;stroke-opacity:1"/><path d="M250.261 44.028c5.077 3.049 2.163 12.118-6.504 20.243-8.667 8.126-19.82 12.246-24.897 9.197-5.076-3.048-2.162-12.117 6.504-20.243s19.821-12.245 24.897-9.197" style="fill:#3c1e1e;fill-opacity:1;stroke:none;stroke-width:5;stroke-miterlimit:4;stroke-opacity:1" transform="translate(-255.894 -29.255)scale(1.33483)"/><path d="M238.334 45.614c-9.543 4.363-18.974 12.112-20.684 22.588-.318 5.615 7.633 4.894 11.139 3.124 9.905-4.235 19.794-12.3 21.453-22.978.143-6.128-8.297-4.373-11.908-2.734" style="fill:#1b0000;fill-opacity:1;stroke:none;stroke-width:5;stroke-miterlimit:4;stroke-opacity:1" transform="translate(-255.894 -29.255)scale(1.33483)"/><path d="m196.932 58.036 29.381 8.403s7.077-.055 11.9-5.986c5.628-6.922 3.806-10.239 3.806-10.239l-17.068-24.521z" style="fill:url(#bK);fill-opacity:1;fill-rule:evenodd;stroke:none;stroke-width:1px;stroke-linecap:butt;stroke-linejoin:miter;stroke-opacity:1" transform="translate(-255.894 -29.255)scale(1.33483)"/><path d="M226.736 29.871s-.06 5.963-3.25 10.204c-3.191 4.24-6.583 9.159-9.976 11.652-3.393 2.494-4.108 2.989-4.108 2.989s3.836-1.64 5.432-2.972c1.595-1.332 4.548-5.933 4.548-5.933l4.695-6.107s2.947-4.195 2.965-4.888c.018-.694-.235-5.09-.306-4.945" style="fill:url(#bL);fill-opacity:1;fill-rule:evenodd;stroke:none;stroke-width:1px;stroke-linecap:butt;stroke-linejoin:miter;stroke-opacity:1" transform="translate(-255.894 -29.255)scale(1.33483)"/><path d="M225.116 25.841c4.027 3.432.664 13.25-7.506 21.915s-18.068 12.912-22.094 9.48c-4.027-3.431-.664-13.249 7.506-21.914s18.068-12.912 22.094-9.48" style="fill:#1b0000;fill-opacity:1;stroke:none;stroke-width:5;stroke-miterlimit:4;stroke-opacity:1" transform="translate(-255.894 -29.255)scale(1.33483)"/><path d="M222.064 65.194s9.505-4.413 11.782-7.845c3.854-5.81 4.373-12.986 4.373-12.986l4.003 6.022s1.03 5.092-3.53 10.06c-5.5 5.994-11.873 6.26-11.873 6.26z" style="fill:#760404;fill-opacity:.28472218;fill-rule:evenodd;stroke:none;stroke-width:1px;stroke-linecap:butt;stroke-linejoin:miter;stroke-opacity:1" transform="translate(-255.894 -29.255)scale(1.33483)"/><path d="M221.154 43.77s10.001 3.893 12.142 6.051 6.289 8.98 6.289 8.98 1.548-2.09 1.957-3.492c.408-1.403.684-2.529.684-2.529s-9.431-6.097-12.137-9.313-4.95-6.366-4.95-6.366z" style="fill:#fefefe;fill-opacity:.05902776;fill-rule:evenodd;stroke:none;stroke-width:1px;stroke-linecap:butt;stroke-linejoin:miter;stroke-opacity:1" transform="translate(-255.894 -29.255)scale(1.33483)"/><path d="m244.938 29.813-30.25-6.875 7.5-4 16.5 18.125z" transform="matrix(1.1552 -.40852 .44354 1.064 -249.998 88.75)" style="fill:#fff;fill-opacity:.12152776;fill-rule:evenodd;stroke:none;stroke-width:1px;stroke-linecap:butt;stroke-linejoin:miter;stroke-opacity:1" mask="url(#bM)"/></g><path d="M113.86 66.313s3.052-1.546 3.624-1.641c.563-.094 1.633-.026 2.391.437.766.47 1.172 1.016 1.172 1.016s-1.328-1.14-2.875-.922c-1.547.219-4.281 1.125-4.313 1.11" style="opacity:.4;fill:url(#bN);fill-opacity:1;fill-rule:evenodd;stroke:none;stroke-width:1px;stroke-linecap:butt;stroke-linejoin:miter;stroke-opacity:1" transform="translate(-50.33 -30.59)scale(1.33483)"/></svg>
